<svg width="680" height="160" viewBox="0 0 680 160" fill="none" xmlns="http://www.w3.org/2000/svg">
<rect width="680" height="160" fill="#1E1E1E"/>
<rect width="680" height="160" fill="white"/>
<path d="M61.8906 54L52.8594 22H59.0938L64.8594 45.5156H65.1563L71.3125 22H76.9844L83.1563 45.5312H83.4375L89.2031 22H95.4375L86.4063 54H80.6875L74.2813 31.5469H74.0313L67.6094 54H61.8906ZM108.703 54.4688C106.297 54.4688 104.218 53.9688 102.468 52.9688C100.729 51.9583 99.3903 50.5312 98.4528 48.6875C97.5153 46.8333 97.0466 44.651 97.0466 42.1406C97.0466 39.6719 97.5153 37.5052 98.4528 35.6406C99.4007 33.7656 100.724 32.3073 102.422 31.2656C104.119 30.2135 106.114 29.6875 108.406 29.6875C109.885 29.6875 111.281 29.9271 112.593 30.4062C113.916 30.875 115.083 31.6042 116.093 32.5937C117.114 33.5833 117.916 34.8437 118.5 36.375C119.083 37.8958 119.375 39.7083 119.375 41.8125V43.5469H99.7028V39.7344H113.953C113.942 38.651 113.708 37.6875 113.25 36.8437C112.791 35.9896 112.151 35.3177 111.328 34.8281C110.515 34.3385 109.567 34.0937 108.484 34.0937C107.328 34.0937 106.312 34.375 105.437 34.9375C104.562 35.4896 103.88 36.2187 103.39 37.125C102.911 38.0208 102.666 39.0052 102.656 40.0781V43.4062C102.656 44.8021 102.911 46 103.422 47C103.932 47.9896 104.646 48.75 105.562 49.2812C106.479 49.8021 107.552 50.0625 108.781 50.0625C109.604 50.0625 110.349 49.9479 111.015 49.7187C111.682 49.4792 112.26 49.1302 112.75 48.6719C113.239 48.2135 113.609 47.6458 113.859 46.9687L119.14 47.5625C118.807 48.9583 118.172 50.1771 117.234 51.2188C116.307 52.25 115.119 53.0521 113.672 53.625C112.224 54.1875 110.567 54.4688 108.703 54.4688ZM149.698 30V34.375H135.901V30H149.698ZM139.308 24.25H144.964V46.7812C144.964 47.5417 145.078 48.125 145.308 48.5312C145.547 48.9271 145.86 49.1979 146.245 49.3437C146.631 49.4896 147.058 49.5625 147.526 49.5625C147.881 49.5625 148.203 49.5365 148.495 49.4844C148.797 49.4323 149.026 49.3854 149.183 49.3437L150.136 53.7656C149.834 53.8698 149.401 53.9844 148.839 54.1094C148.287 54.2344 147.61 54.3073 146.808 54.3281C145.391 54.3698 144.115 54.1562 142.98 53.6875C141.844 53.2083 140.943 52.4687 140.276 51.4687C139.62 50.4687 139.297 49.2187 139.308 47.7187V24.25ZM161.921 39.9375V54H156.264V22H161.796V34.0781H162.077C162.639 32.724 163.509 31.6562 164.686 30.875C165.874 30.0833 167.384 29.6875 169.217 29.6875C170.884 29.6875 172.337 30.0365 173.577 30.7344C174.816 31.4323 175.775 32.4531 176.452 33.7969C177.139 35.1406 177.483 36.7812 177.483 38.7187V54H171.827V39.5937C171.827 37.9792 171.41 36.724 170.577 35.8281C169.754 34.9219 168.598 34.4687 167.108 34.4687C166.108 34.4687 165.212 34.6875 164.421 35.125C163.639 35.5521 163.025 36.1719 162.577 36.9844C162.139 37.7969 161.921 38.7812 161.921 39.9375ZM191.475 54.4844C189.954 54.4844 188.584 54.2135 187.366 53.6719C186.157 53.1198 185.199 52.3073 184.491 51.2344C183.793 50.1615 183.444 48.8385 183.444 47.2656C183.444 45.9115 183.694 44.7917 184.194 43.9062C184.694 43.0208 185.376 42.3125 186.241 41.7812C187.105 41.25 188.079 40.849 189.163 40.5781C190.256 40.2969 191.386 40.0937 192.553 39.9687C193.959 39.8229 195.1 39.6927 195.975 39.5781C196.85 39.4531 197.485 39.2656 197.881 39.0156C198.288 38.7552 198.491 38.3542 198.491 37.8125V37.7188C198.491 36.5417 198.142 35.6302 197.444 34.9844C196.746 34.3385 195.741 34.0156 194.428 34.0156C193.043 34.0156 191.944 34.3177 191.131 34.9219C190.329 35.526 189.788 36.2396 189.506 37.0625L184.225 36.3125C184.642 34.8542 185.329 33.6354 186.288 32.6562C187.246 31.6667 188.418 30.9271 189.803 30.4375C191.189 29.9375 192.72 29.6875 194.397 29.6875C195.553 29.6875 196.704 29.8229 197.85 30.0937C198.996 30.3646 200.043 30.8125 200.991 31.4375C201.939 32.0521 202.699 32.8906 203.272 33.9531C203.855 35.0156 204.147 36.3437 204.147 37.9375V54H198.709V50.7031H198.522C198.178 51.3698 197.694 51.9948 197.069 52.5781C196.454 53.151 195.678 53.6146 194.741 53.9687C193.814 54.3125 192.725 54.4844 191.475 54.4844ZM192.944 50.3281C194.079 50.3281 195.064 50.1042 195.897 49.6562C196.73 49.1979 197.371 48.5937 197.819 47.8437C198.277 47.0937 198.506 46.276 198.506 45.3906V42.5625C198.329 42.7083 198.027 42.8437 197.6 42.9687C197.183 43.0937 196.715 43.2031 196.194 43.2969C195.673 43.3906 195.157 43.474 194.647 43.5469C194.136 43.6198 193.694 43.6823 193.319 43.7344C192.475 43.849 191.72 44.0365 191.053 44.2969C190.386 44.5573 189.86 44.9219 189.475 45.3906C189.09 45.849 188.897 46.4427 188.897 47.1719C188.897 48.2135 189.277 49 190.038 49.5312C190.798 50.0625 191.767 50.3281 192.944 50.3281ZM216.811 39.9375V54H211.154V30H216.561V34.0781H216.842C217.394 32.7344 218.274 31.6667 219.482 30.875C220.701 30.0833 222.206 29.6875 223.998 29.6875C225.654 29.6875 227.097 30.0417 228.326 30.75C229.566 31.4583 230.524 32.4844 231.201 33.8281C231.889 35.1719 232.227 36.8021 232.217 38.7187V54H226.561V39.5937C226.561 37.9896 226.144 36.7344 225.311 35.8281C224.488 34.9219 223.347 34.4687 221.889 34.4687C220.899 34.4687 220.019 34.6875 219.248 35.125C218.488 35.5521 217.889 36.1719 217.451 36.9844C217.024 37.7969 216.811 38.7812 216.811 39.9375ZM244.443 46.4687L244.428 39.6406H245.334L253.959 30H260.568L249.959 41.8125H248.787L244.443 46.4687ZM239.287 54V22H244.943V54H239.287ZM254.349 54L246.537 43.0781L250.349 39.0938L261.115 54H254.349ZM281.407 63C280.637 63 279.923 62.9375 279.267 62.8125C278.621 62.6979 278.105 62.5625 277.72 62.4063L279.032 58C279.855 58.2396 280.59 58.3542 281.235 58.3438C281.881 58.3333 282.449 58.1302 282.939 57.7344C283.439 57.349 283.86 56.7031 284.204 55.7969L284.689 54.5L275.985 30H281.985L287.517 48.125H287.767L293.314 30H299.329L289.72 56.9063C289.272 58.1771 288.678 59.2656 287.939 60.1719C287.199 61.0885 286.293 61.7865 285.22 62.2656C284.157 62.7552 282.887 63 281.407 63ZM314.216 54.4688C311.872 54.4688 309.841 53.9531 308.122 52.9219C306.403 51.8906 305.07 50.4479 304.122 48.5937C303.184 46.7396 302.716 44.5729 302.716 42.0937C302.716 39.6146 303.184 37.4427 304.122 35.5781C305.07 33.7135 306.403 32.2656 308.122 31.2344C309.841 30.2031 311.872 29.6875 314.216 29.6875C316.559 29.6875 318.591 30.2031 320.309 31.2344C322.028 32.2656 323.356 33.7135 324.294 35.5781C325.242 37.4427 325.716 39.6146 325.716 42.0937C325.716 44.5729 325.242 46.7396 324.294 48.5937C323.356 50.4479 322.028 51.8906 320.309 52.9219C318.591 53.9531 316.559 54.4688 314.216 54.4688ZM314.247 49.9375C315.518 49.9375 316.58 49.5885 317.434 48.8906C318.289 48.1823 318.924 47.2344 319.341 46.0469C319.768 44.8594 319.981 43.5365 319.981 42.0781C319.981 40.6094 319.768 39.2812 319.341 38.0937C318.924 36.8958 318.289 35.9427 317.434 35.2344C316.58 34.526 315.518 34.1719 314.247 34.1719C312.945 34.1719 311.861 34.526 310.997 35.2344C310.143 35.9427 309.502 36.8958 309.075 38.0937C308.658 39.2812 308.45 40.6094 308.45 42.0781C308.45 43.5365 308.658 44.8594 309.075 46.0469C309.502 47.2344 310.143 48.1823 310.997 48.8906C311.861 49.5885 312.945 49.9375 314.247 49.9375ZM347.133 43.9062V30H352.79V54H347.305V49.7344H347.055C346.513 51.0781 345.623 52.1771 344.383 53.0312C343.154 53.8854 341.638 54.3125 339.836 54.3125C338.263 54.3125 336.873 53.9635 335.665 53.2656C334.467 52.5573 333.529 51.5312 332.852 50.1875C332.175 48.8333 331.836 47.1979 331.836 45.2812V30H337.493V44.4062C337.493 45.9271 337.909 47.1354 338.743 48.0313C339.576 48.9271 340.67 49.375 342.024 49.375C342.857 49.375 343.665 49.1719 344.446 48.7656C345.227 48.3594 345.868 47.7552 346.368 46.9531C346.878 46.1406 347.133 45.125 347.133 43.9062ZM384.316 30V34.375H370.129V30H384.316ZM373.676 54V27.7344C373.676 26.1198 374.009 24.776 374.676 23.7031C375.353 22.6302 376.259 21.8281 377.394 21.2969C378.53 20.7656 379.79 20.5 381.176 20.5C382.155 20.5 383.025 20.5781 383.785 20.7344C384.545 20.8906 385.108 21.0312 385.473 21.1562L384.348 25.5312C384.108 25.4583 383.806 25.3854 383.441 25.3125C383.077 25.2292 382.67 25.1875 382.223 25.1875C381.17 25.1875 380.426 25.4427 379.988 25.9531C379.561 26.4531 379.348 27.1719 379.348 28.1094V54H373.676ZM399.632 54.4688C397.289 54.4688 395.257 53.9531 393.539 52.9219C391.82 51.8906 390.487 50.4479 389.539 48.5937C388.601 46.7396 388.132 44.5729 388.132 42.0937C388.132 39.6146 388.601 37.4427 389.539 35.5781C390.487 33.7135 391.82 32.2656 393.539 31.2344C395.257 30.2031 397.289 29.6875 399.632 29.6875C401.976 29.6875 404.007 30.2031 405.726 31.2344C407.445 32.2656 408.773 33.7135 409.71 35.5781C410.658 37.4427 411.132 39.6146 411.132 42.0937C411.132 44.5729 410.658 46.7396 409.71 48.5937C408.773 50.4479 407.445 51.8906 405.726 52.9219C404.007 53.9531 401.976 54.4688 399.632 54.4688ZM399.664 49.9375C400.934 49.9375 401.997 49.5885 402.851 48.8906C403.705 48.1823 404.341 47.2344 404.757 46.0469C405.184 44.8594 405.398 43.5365 405.398 42.0781C405.398 40.6094 405.184 39.2812 404.757 38.0937C404.341 36.8958 403.705 35.9427 402.851 35.2344C401.997 34.526 400.934 34.1719 399.664 34.1719C398.362 34.1719 397.278 34.526 396.414 35.2344C395.559 35.9427 394.919 36.8958 394.492 38.0937C394.075 39.2812 393.867 40.6094 393.867 42.0781C393.867 43.5365 394.075 44.8594 394.492 46.0469C394.919 47.2344 395.559 48.1823 396.414 48.8906C397.278 49.5885 398.362 49.9375 399.664 49.9375ZM417.253 54V30H422.737V34H422.987C423.425 32.6146 424.175 31.5469 425.237 30.7969C426.31 30.0365 427.534 29.6562 428.909 29.6562C429.222 29.6562 429.571 29.6719 429.956 29.7031C430.352 29.724 430.68 29.7604 430.941 29.8125V35.0156C430.701 34.9323 430.321 34.8594 429.8 34.7969C429.29 34.724 428.795 34.6875 428.316 34.6875C427.284 34.6875 426.357 34.9115 425.534 35.3594C424.722 35.7969 424.081 36.4062 423.612 37.1875C423.144 37.9687 422.909 38.8698 422.909 39.8906V54H417.253ZM458.721 54.4688C456.325 54.4688 454.268 53.9427 452.549 52.8906C450.841 51.8385 449.523 50.3854 448.596 48.5312C447.68 46.6667 447.221 44.5208 447.221 42.0937C447.221 39.6562 447.69 37.5052 448.628 35.6406C449.565 33.7656 450.888 32.3073 452.596 31.2656C454.315 30.2135 456.346 29.6875 458.69 29.6875C460.638 29.6875 462.362 30.0469 463.862 30.7656C465.372 31.474 466.575 32.4792 467.471 33.7812C468.367 35.0729 468.878 36.5833 469.003 38.3125H463.596C463.378 37.1562 462.857 36.1927 462.034 35.4219C461.221 34.6406 460.133 34.25 458.768 34.25C457.612 34.25 456.596 34.5625 455.721 35.1875C454.846 35.8021 454.164 36.6875 453.674 37.8438C453.195 39 452.956 40.3854 452.956 42C452.956 43.6354 453.195 45.0417 453.674 46.2187C454.154 47.3854 454.825 48.2865 455.69 48.9219C456.565 49.5469 457.591 49.8594 458.768 49.8594C459.601 49.8594 460.346 49.7031 461.003 49.3906C461.669 49.0677 462.226 48.6042 462.674 48C463.122 47.3958 463.43 46.6615 463.596 45.7969H469.003C468.867 47.4948 468.367 49 467.503 50.3125C466.638 51.6146 465.461 52.6354 463.971 53.375C462.482 54.1042 460.732 54.4688 458.721 54.4688ZM480.623 39.9375V54H474.967V22H480.498V34.0781H480.78C481.342 32.724 482.212 31.6562 483.389 30.875C484.576 30.0833 486.087 29.6875 487.92 29.6875C489.587 29.6875 491.04 30.0365 492.28 30.7344C493.519 31.4323 494.477 32.4531 495.155 33.7969C495.842 35.1406 496.186 36.7812 496.186 38.7187V54H490.53V39.5937C490.53 37.9792 490.113 36.724 489.28 35.8281C488.457 34.9219 487.3 34.4687 485.811 34.4687C484.811 34.4687 483.915 34.6875 483.123 35.125C482.342 35.5521 481.727 36.1719 481.28 36.9844C480.842 37.7969 480.623 38.7812 480.623 39.9375ZM513.74 54.4688C511.396 54.4688 509.365 53.9531 507.646 52.9219C505.928 51.8906 504.594 50.4479 503.646 48.5937C502.709 46.7396 502.24 44.5729 502.24 42.0937C502.24 39.6146 502.709 37.4427 503.646 35.5781C504.594 33.7135 505.928 32.2656 507.646 31.2344C509.365 30.2031 511.396 29.6875 513.74 29.6875C516.084 29.6875 518.115 30.2031 519.834 31.2344C521.553 32.2656 522.881 33.7135 523.818 35.5781C524.766 37.4427 525.24 39.6146 525.24 42.0937C525.24 44.5729 524.766 46.7396 523.818 48.5937C522.881 50.4479 521.553 51.8906 519.834 52.9219C518.115 53.9531 516.084 54.4688 513.74 54.4688ZM513.771 49.9375C515.042 49.9375 516.105 49.5885 516.959 48.8906C517.813 48.1823 518.448 47.2344 518.865 46.0469C519.292 44.8594 519.506 43.5365 519.506 42.0781C519.506 40.6094 519.292 39.2812 518.865 38.0937C518.448 36.8958 517.813 35.9427 516.959 35.2344C516.105 34.526 515.042 34.1719 513.771 34.1719C512.469 34.1719 511.386 34.526 510.521 35.2344C509.667 35.9427 509.027 36.8958 508.6 38.0937C508.183 39.2812 507.975 40.6094 507.975 42.0781C507.975 43.5365 508.183 44.8594 508.6 46.0469C509.027 47.2344 509.667 48.1823 510.521 48.8906C511.386 49.5885 512.469 49.9375 513.771 49.9375ZM541.83 54.4688C539.486 54.4688 537.455 53.9531 535.736 52.9219C534.017 51.8906 532.684 50.4479 531.736 48.5937C530.798 46.7396 530.33 44.5729 530.33 42.0937C530.33 39.6146 530.798 37.4427 531.736 35.5781C532.684 33.7135 534.017 32.2656 535.736 31.2344C537.455 30.2031 539.486 29.6875 541.83 29.6875C544.173 29.6875 546.205 30.2031 547.923 31.2344C549.642 32.2656 550.97 33.7135 551.908 35.5781C552.856 37.4427 553.33 39.6146 553.33 42.0937C553.33 44.5729 552.856 46.7396 551.908 48.5937C550.97 50.4479 549.642 51.8906 547.923 52.9219C546.205 53.9531 544.173 54.4688 541.83 54.4688ZM541.861 49.9375C543.132 49.9375 544.194 49.5885 545.048 48.8906C545.903 48.1823 546.538 47.2344 546.955 46.0469C547.382 44.8594 547.595 43.5365 547.595 42.0781C547.595 40.6094 547.382 39.2812 546.955 38.0937C546.538 36.8958 545.903 35.9427 545.048 35.2344C544.194 34.526 543.132 34.1719 541.861 34.1719C540.559 34.1719 539.476 34.526 538.611 35.2344C537.757 35.9427 537.116 36.8958 536.689 38.0937C536.272 39.2812 536.064 40.6094 536.064 42.0781C536.064 43.5365 536.272 44.8594 536.689 46.0469C537.116 47.2344 537.757 48.1823 538.611 48.8906C539.476 49.5885 540.559 49.9375 541.861 49.9375ZM578.419 36.3438L573.263 36.9062C573.117 36.3854 572.862 35.8958 572.497 35.4375C572.143 34.9792 571.664 34.6094 571.06 34.3281C570.456 34.0469 569.716 33.9062 568.841 33.9062C567.664 33.9062 566.674 34.1615 565.872 34.6719C565.081 35.1823 564.69 35.8437 564.7 36.6562C564.69 37.3542 564.945 37.9219 565.466 38.3594C565.997 38.7969 566.872 39.1562 568.091 39.4375L572.185 40.3125C574.456 40.8021 576.143 41.5781 577.247 42.6406C578.362 43.7031 578.924 45.0937 578.935 46.8125C578.924 48.3229 578.482 49.6562 577.607 50.8125C576.742 51.9583 575.539 52.8542 573.997 53.5C572.456 54.1458 570.685 54.4688 568.685 54.4688C565.747 54.4688 563.383 53.8542 561.591 52.625C559.799 51.3854 558.732 49.6615 558.388 47.4531L563.904 46.9219C564.154 48.0052 564.685 48.8229 565.497 49.375C566.31 49.9271 567.367 50.2031 568.669 50.2031C570.013 50.2031 571.091 49.9271 571.904 49.375C572.727 48.8229 573.138 48.1406 573.138 47.3281C573.138 46.6406 572.872 46.0729 572.341 45.625C571.82 45.1771 571.008 44.8333 569.904 44.5937L565.81 43.7344C563.508 43.2552 561.805 42.4479 560.7 41.3125C559.596 40.1667 559.049 38.7187 559.06 36.9687C559.049 35.4896 559.45 34.2083 560.263 33.125C561.086 32.0312 562.227 31.1875 563.685 30.5937C565.154 29.9896 566.846 29.6875 568.763 29.6875C571.575 29.6875 573.789 30.2865 575.404 31.4844C577.029 32.6823 578.034 34.3021 578.419 36.3438ZM584.919 54V30H590.575V54H584.919ZM587.763 26.5938C586.867 26.5938 586.096 26.2969 585.45 25.7031C584.804 25.099 584.481 24.375 584.481 23.5312C584.481 22.6771 584.804 21.9531 585.45 21.3594C586.096 20.7552 586.867 20.4531 587.763 20.4531C588.669 20.4531 589.44 20.7552 590.075 21.3594C590.721 21.9531 591.044 22.6771 591.044 23.5312C591.044 24.375 590.721 25.099 590.075 25.7031C589.44 26.2969 588.669 26.5938 587.763 26.5938ZM603.368 39.9375V54H597.712V30H603.118V34.0781H603.399C603.951 32.7344 604.831 31.6667 606.04 30.875C607.258 30.0833 608.764 29.6875 610.555 29.6875C612.212 29.6875 613.654 30.0417 614.883 30.75C616.123 31.4583 617.081 32.4844 617.758 33.8281C618.446 35.1719 618.784 36.8021 618.774 38.7187V54H613.118V39.5937C613.118 37.9896 612.701 36.7344 611.868 35.8281C611.045 34.9219 609.904 34.4687 608.446 34.4687C607.456 34.4687 606.576 34.6875 605.805 35.125C605.045 35.5521 604.446 36.1719 604.008 36.9844C603.581 37.7969 603.368 38.7812 603.368 39.9375ZM636.282 63.5C634.25 63.5 632.506 63.224 631.047 62.6719C629.589 62.1302 628.417 61.401 627.532 60.4844C626.646 59.5677 626.032 58.5521 625.688 57.4375L630.782 56.2031C631.011 56.6719 631.344 57.1354 631.782 57.5938C632.219 58.0625 632.808 58.4479 633.547 58.75C634.297 59.0625 635.24 59.2188 636.375 59.2188C637.979 59.2188 639.308 58.8281 640.36 58.0469C641.412 57.276 641.938 56.0052 641.938 54.2344V49.6875H641.657C641.365 50.2708 640.938 50.8698 640.375 51.4844C639.823 52.099 639.089 52.6146 638.172 53.0312C637.266 53.4479 636.125 53.6562 634.75 53.6562C632.907 53.6562 631.235 53.224 629.735 52.3594C628.245 51.4844 627.058 50.1823 626.172 48.4531C625.297 46.7135 624.86 44.5365 624.86 41.9219C624.86 39.2865 625.297 37.0625 626.172 35.25C627.058 33.4271 628.25 32.0469 629.75 31.1094C631.25 30.1615 632.922 29.6875 634.766 29.6875C636.172 29.6875 637.328 29.9271 638.235 30.4062C639.151 30.875 639.881 31.4427 640.422 32.1094C640.964 32.7656 641.375 33.3854 641.657 33.9687H641.969V30H647.547V54.3906C647.547 56.4427 647.058 58.1406 646.078 59.4844C645.099 60.8281 643.761 61.8333 642.063 62.5C640.365 63.1667 638.438 63.5 636.282 63.5ZM636.328 49.2187C637.526 49.2187 638.547 48.9271 639.391 48.3437C640.235 47.7604 640.875 46.9219 641.313 45.8281C641.75 44.7344 641.969 43.4219 641.969 41.8906C641.969 40.3802 641.75 39.0573 641.313 37.9219C640.886 36.7865 640.25 35.9062 639.407 35.2812C638.573 34.6458 637.547 34.3281 636.328 34.3281C635.068 34.3281 634.016 34.6562 633.172 35.3125C632.328 35.9687 631.693 36.8698 631.266 38.0156C630.839 39.151 630.625 40.4427 630.625 41.8906C630.625 43.3594 630.839 44.6458 631.266 45.75C631.703 46.8437 632.344 47.6979 633.188 48.3125C634.042 48.9167 635.089 49.2187 636.328 49.2187ZM54.4219 110V78H67.7656C70.1615 78 72.1667 78.3385 73.7813 79.0156C75.4063 79.6927 76.625 80.6406 77.4375 81.8594C78.2604 83.0781 78.6719 84.4896 78.6719 86.0937C78.6719 87.3125 78.4167 88.401 77.9063 89.3594C77.3958 90.3073 76.6927 91.0937 75.7969 91.7187C74.901 92.3437 73.8646 92.7812 72.6875 93.0313V93.3437C73.9792 93.4062 75.1719 93.7552 76.2656 94.3906C77.3698 95.026 78.2552 95.9115 78.9219 97.0469C79.5885 98.1719 79.9219 99.5052 79.9219 101.047C79.9219 102.766 79.4844 104.302 78.6094 105.656C77.7344 107 76.4688 108.062 74.8125 108.844C73.1563 109.615 71.1458 110 68.7813 110H54.4219ZM62.1563 103.766H66.9375C68.6146 103.766 69.849 103.448 70.6406 102.812C71.4427 102.177 71.8438 101.292 71.8438 100.156C71.8438 99.3333 71.651 98.625 71.2656 98.0312C70.8802 97.4271 70.3333 96.9635 69.625 96.6406C68.9167 96.3073 68.0677 96.1406 67.0781 96.1406H62.1563V103.766ZM62.1563 91.1562H66.4375C67.2813 91.1562 68.0313 91.0156 68.6875 90.7344C69.3438 90.4531 69.8542 90.0469 70.2188 89.5156C70.5938 88.9844 70.7813 88.3437 70.7813 87.5937C70.7813 86.5208 70.401 85.6771 69.6406 85.0625C68.8802 84.4479 67.8542 84.1406 66.5625 84.1406H62.1563V91.1562ZM96.1637 110.453C93.6429 110.453 91.4762 109.938 89.6638 108.906C87.8617 107.865 86.471 106.417 85.4919 104.562C84.5231 102.698 84.0387 100.536 84.0387 98.0781C84.0387 95.6094 84.5231 93.4479 85.4919 91.5937C86.471 89.7292 87.8617 88.2812 89.6638 87.25C91.4762 86.2083 93.6429 85.6875 96.1637 85.6875C98.6846 85.6875 100.846 86.2083 102.648 87.25C104.461 88.2812 105.851 89.7292 106.82 91.5937C107.799 93.4479 108.289 95.6094 108.289 98.0781C108.289 100.536 107.799 102.698 106.82 104.562C105.851 106.417 104.461 107.865 102.648 108.906C100.846 109.938 98.6846 110.453 96.1637 110.453ZM96.2106 104.687C97.1273 104.687 97.9033 104.406 98.5388 103.844C99.1742 103.281 99.6585 102.5 99.9919 101.5C100.336 100.5 100.507 99.3437 100.507 98.0312C100.507 96.6979 100.336 95.5312 99.9919 94.5312C99.6585 93.5313 99.1742 92.75 98.5388 92.1875C97.9033 91.625 97.1273 91.3437 96.2106 91.3437C95.2627 91.3437 94.4606 91.625 93.8044 92.1875C93.1585 92.75 92.6637 93.5313 92.32 94.5312C91.9867 95.5312 91.82 96.6979 91.82 98.0312C91.82 99.3437 91.9867 100.5 92.32 101.5C92.6637 102.5 93.1585 103.281 93.8044 103.844C94.4606 104.406 95.2627 104.687 96.2106 104.687ZM124.726 110.453C122.205 110.453 120.038 109.938 118.226 108.906C116.424 107.865 115.033 106.417 114.054 104.562C113.085 102.698 112.601 100.536 112.601 98.0781C112.601 95.6094 113.085 93.4479 114.054 91.5937C115.033 89.7292 116.424 88.2812 118.226 87.25C120.038 86.2083 122.205 85.6875 124.726 85.6875C127.247 85.6875 129.408 86.2083 131.21 87.25C133.023 88.2812 134.413 89.7292 135.382 91.5937C136.361 93.4479 136.851 95.6094 136.851 98.0781C136.851 100.536 136.361 102.698 135.382 104.562C134.413 106.417 133.023 107.865 131.21 108.906C129.408 109.938 127.247 110.453 124.726 110.453ZM124.773 104.687C125.689 104.687 126.466 104.406 127.101 103.844C127.736 103.281 128.221 102.5 128.554 101.5C128.898 100.5 129.07 99.3437 129.07 98.0312C129.07 96.6979 128.898 95.5312 128.554 94.5312C128.221 93.5313 127.736 92.75 127.101 92.1875C126.466 91.625 125.689 91.3437 124.773 91.3437C123.825 91.3437 123.023 91.625 122.367 92.1875C121.721 92.75 121.226 93.5313 120.882 94.5312C120.549 95.5312 120.382 96.6979 120.382 98.0312C120.382 99.3437 120.549 100.5 120.882 101.5C121.226 102.5 121.721 103.281 122.367 103.844C123.023 104.406 123.825 104.687 124.773 104.687ZM148.976 103.703L149.007 94.5937H150.069L156.819 86H165.476L155.444 98.3125H153.429L148.976 103.703ZM142.085 110V78H149.726V110H142.085ZM156.991 110L150.71 100.031L155.741 94.6094L165.819 110H156.991ZM190.483 93.3281L183.467 93.5156C183.395 93.0156 183.197 92.5729 182.874 92.1875C182.551 91.7917 182.129 91.4844 181.608 91.2656C181.098 91.0365 180.504 90.9219 179.827 90.9219C178.941 90.9219 178.186 91.099 177.561 91.4531C176.947 91.8073 176.645 92.2865 176.655 92.8906C176.645 93.3594 176.832 93.7656 177.217 94.1094C177.613 94.4531 178.316 94.7292 179.327 94.9375L183.952 95.8125C186.348 96.2708 188.129 97.0312 189.296 98.0937C190.473 99.1562 191.066 100.562 191.077 102.312C191.066 103.958 190.577 105.391 189.608 106.609C188.65 107.828 187.337 108.776 185.671 109.453C184.004 110.12 182.098 110.453 179.952 110.453C176.525 110.453 173.822 109.75 171.842 108.344C169.874 106.927 168.749 105.031 168.467 102.656L176.014 102.469C176.181 103.344 176.613 104.01 177.311 104.469C178.009 104.927 178.9 105.156 179.983 105.156C180.962 105.156 181.759 104.974 182.374 104.609C182.988 104.245 183.301 103.76 183.311 103.156C183.301 102.615 183.061 102.182 182.592 101.859C182.124 101.526 181.389 101.266 180.389 101.078L176.202 100.281C173.796 99.8437 172.004 99.0365 170.827 97.8594C169.65 96.6719 169.066 95.1615 169.077 93.3281C169.066 91.724 169.494 90.3542 170.358 89.2187C171.223 88.0729 172.452 87.1979 174.046 86.5937C175.639 85.9896 177.52 85.6875 179.686 85.6875C182.936 85.6875 185.499 86.3698 187.374 87.7344C189.249 89.0885 190.285 90.9531 190.483 93.3281ZM209.705 86V91.625H194.565V86H209.705ZM197.737 80.25H205.377V102.453C205.377 102.922 205.45 103.302 205.596 103.594C205.752 103.875 205.976 104.078 206.268 104.203C206.56 104.318 206.909 104.375 207.315 104.375C207.607 104.375 207.914 104.349 208.237 104.297C208.57 104.234 208.82 104.182 208.987 104.141L210.143 109.656C209.778 109.76 209.263 109.891 208.596 110.047C207.94 110.203 207.153 110.302 206.237 110.344C204.445 110.427 202.909 110.219 201.627 109.719C200.357 109.208 199.383 108.417 198.705 107.344C198.039 106.271 197.716 104.922 197.737 103.297V80.25ZM225.869 110.453C223.348 110.453 221.182 109.938 219.369 108.906C217.567 107.865 216.177 106.417 215.197 104.562C214.229 102.698 213.744 100.536 213.744 98.0781C213.744 95.6094 214.229 93.4479 215.197 91.5937C216.177 89.7292 217.567 88.2812 219.369 87.25C221.182 86.2083 223.348 85.6875 225.869 85.6875C228.39 85.6875 230.552 86.2083 232.354 87.25C234.166 88.2812 235.557 89.7292 236.525 91.5937C237.505 93.4479 237.994 95.6094 237.994 98.0781C237.994 100.536 237.505 102.698 236.525 104.562C235.557 106.417 234.166 107.865 232.354 108.906C230.552 109.938 228.39 110.453 225.869 110.453ZM225.916 104.687C226.833 104.687 227.609 104.406 228.244 103.844C228.88 103.281 229.364 102.5 229.697 101.5C230.041 100.5 230.213 99.3437 230.213 98.0312C230.213 96.6979 230.041 95.5312 229.697 94.5312C229.364 93.5313 228.88 92.75 228.244 92.1875C227.609 91.625 226.833 91.3437 225.916 91.3437C224.968 91.3437 224.166 91.625 223.51 92.1875C222.864 92.75 222.369 93.5313 222.025 94.5312C221.692 95.5312 221.525 96.6979 221.525 98.0312C221.525 99.3437 221.692 100.5 222.025 101.5C222.369 102.5 222.864 103.281 223.51 103.844C224.166 104.406 224.968 104.687 225.916 104.687ZM243.228 110V86H250.65V90.375H250.9C251.338 88.7917 252.051 87.6146 253.041 86.8437C254.03 86.0625 255.181 85.6719 256.494 85.6719C256.848 85.6719 257.213 85.6979 257.588 85.75C257.963 85.7917 258.312 85.8594 258.635 85.9531V92.5937C258.27 92.4687 257.791 92.3698 257.197 92.2969C256.614 92.224 256.093 92.1875 255.635 92.1875C254.728 92.1875 253.911 92.3906 253.181 92.7969C252.463 93.1927 251.895 93.75 251.478 94.4687C251.072 95.1771 250.869 96.0104 250.869 96.9687V110H243.228ZM273.04 110.453C270.53 110.453 268.363 109.958 266.54 108.969C264.728 107.969 263.332 106.547 262.353 104.703C261.384 102.849 260.9 100.646 260.9 98.0937C260.9 95.6146 261.389 93.4479 262.369 91.5937C263.348 89.7292 264.728 88.2812 266.509 87.25C268.29 86.2083 270.389 85.6875 272.806 85.6875C274.514 85.6875 276.077 85.9531 277.494 86.4844C278.91 87.0156 280.134 87.8021 281.165 88.8437C282.197 89.8854 282.999 91.1719 283.572 92.7031C284.145 94.224 284.431 95.9687 284.431 97.9375V99.8437H263.572V95.4062H277.322C277.311 94.5937 277.119 93.8698 276.744 93.2344C276.369 92.599 275.853 92.1042 275.197 91.75C274.551 91.3854 273.806 91.2031 272.962 91.2031C272.108 91.2031 271.343 91.3958 270.665 91.7812C269.988 92.1563 269.452 92.6719 269.056 93.3281C268.66 93.974 268.452 94.7083 268.431 95.5312V100.047C268.431 101.026 268.624 101.885 269.009 102.625C269.395 103.354 269.942 103.922 270.65 104.328C271.358 104.734 272.202 104.937 273.181 104.937C273.858 104.937 274.473 104.844 275.025 104.656C275.577 104.469 276.051 104.193 276.447 103.828C276.843 103.464 277.139 103.016 277.337 102.484L284.353 102.687C284.061 104.26 283.421 105.63 282.431 106.797C281.452 107.953 280.165 108.854 278.572 109.5C276.978 110.135 275.134 110.453 273.04 110.453ZM305.856 110.344C304.908 110.344 304.096 110.01 303.419 109.344C302.742 108.677 302.408 107.865 302.419 106.906C302.408 105.969 302.742 105.167 303.419 104.5C304.096 103.833 304.908 103.5 305.856 103.5C306.773 103.5 307.57 103.833 308.247 104.5C308.934 105.167 309.283 105.969 309.294 106.906C309.283 107.542 309.117 108.12 308.794 108.641C308.481 109.161 308.065 109.578 307.544 109.891C307.033 110.193 306.471 110.344 305.856 110.344ZM305.856 93.2187C304.908 93.2187 304.096 92.8854 303.419 92.2187C302.742 91.5417 302.408 90.7292 302.419 89.7812C302.408 88.8437 302.742 88.0417 303.419 87.375C304.096 86.6979 304.908 86.3594 305.856 86.3594C306.773 86.3594 307.57 86.6979 308.247 87.375C308.934 88.0417 309.283 88.8437 309.294 89.7812C309.283 90.4062 309.117 90.9792 308.794 91.5C308.481 92.0208 308.065 92.4375 307.544 92.75C307.033 93.0625 306.471 93.2187 305.856 93.2187ZM326.547 96.9531C326.547 100.849 326.026 104.437 324.985 107.719C323.954 110.99 322.412 114.016 320.36 116.797H315.032C315.834 115.766 316.573 114.505 317.25 113.016C317.938 111.526 318.532 109.891 319.032 108.109C319.542 106.328 319.938 104.484 320.219 102.578C320.511 100.672 320.657 98.7969 320.657 96.9531C320.657 94.4844 320.407 91.9844 319.907 89.4531C319.417 86.9219 318.745 84.5729 317.891 82.4062C317.047 80.2396 316.094 78.4688 315.032 77.0938H320.36C322.412 79.875 323.954 82.9062 324.985 86.1875C326.026 89.4583 326.547 93.0469 326.547 96.9531Z" fill="black"/>
<path d="M52 132.609C211.274 99.7393 284 132.609 284 132.609C284 132.609 185.277 109.479 91.1603 146" stroke="#EF9600" stroke-width="4"/>
</svg>
