<svg width="500" height="446" viewBox="0 0 500 446" fill="none" xmlns="http://www.w3.org/2000/svg">
<rect width="500" height="446" fill="#1E1E1E"/>
<rect width="1440" height="1024" transform="translate(-891 -338)" fill="white"/>
<rect x="44" y="32" width="411" height="414" fill="#0058CC" fill-opacity="0.38"/>
<rect x="12" width="411" height="414" fill="#01ABE1" fill-opacity="0.22"/>
<path d="M165.671 112.776C165.467 107.109 164.075 101.549 161.585 96.4598C160.639 94.5277 159.539 92.6757 158.296 90.922C149.018 77.8119 132.381 71.0617 115.921 75.2247C99.4608 79.3879 87.986 93.2481 85.989 109.21C85.7201 111.346 85.6237 113.501 85.7007 115.653C85.9049 121.32 87.2974 126.879 89.7872 131.968C99.5528 131.653 112.668 129.94 128.615 125.907C144.561 121.874 156.921 117.143 165.671 112.776Z" fill="url(#paint0_linear_0_1)"/>
<mask id="mask0_0_1" style="mask-type:alpha" maskUnits="userSpaceOnUse" x="85" y="75" width="81" height="58">
<path fill-rule="evenodd" clip-rule="evenodd" d="M165.522 113.741C165.318 108.113 163.931 102.592 161.45 97.5379C160.507 95.6191 159.411 93.7799 158.173 92.0383C148.927 79.0189 132.349 72.3153 115.947 76.4495C99.5446 80.5839 88.1102 94.3483 86.1202 110.2C85.8522 112.321 85.7562 114.461 85.833 116.598C86.0364 122.226 87.424 127.747 89.9051 132.801C99.6362 132.488 112.705 130.787 128.596 126.782C144.486 122.776 156.802 118.078 165.522 113.741Z" fill="white"/>
</mask>
<g mask="url(#mask0_0_1)">
<path d="M100.014 69.8672C184.868 74.8988 167.446 121.508 106.941 131.176C46.4351 140.843 186.905 124.796 186.905 124.796L184.611 78.5338L120.266 66.0186L103.09 74.708" fill="url(#paint1_linear_0_1)"/>
</g>
<path d="M92.6313 138.44C102.004 151.39 118.809 158.058 135.436 153.946C152.063 149.833 163.654 136.142 165.671 120.375C155.717 124.906 143.282 129.106 129.921 132.41C116.56 135.715 103.582 137.8 92.6313 138.44Z" fill="url(#paint2_linear_0_1)"/>
<path d="M187.494 99.3009C186.129 93.9765 178.506 91.3147 164.838 91.3921C162.846 91.4034 160.755 91.4787 158.592 91.6047C159.847 93.3344 160.957 95.1611 161.912 97.0667C174.362 96.674 181.414 98.4803 181.974 100.665C182.534 102.85 177.193 107.718 166.037 113.159C157.204 117.467 144.727 122.133 128.63 126.111C112.532 130.089 99.2926 131.778 89.4346 132.089C76.9848 132.482 69.9332 130.675 69.3728 128.491C68.8131 126.306 74.1534 121.437 85.3094 115.997C85.2316 113.874 85.3289 111.749 85.6004 109.643C83.6346 110.537 81.7559 111.442 79.9968 112.358C67.9192 118.643 62.488 124.53 63.853 129.855C65.2179 135.179 72.8407 137.841 86.5093 137.763C88.5004 137.752 90.5917 137.677 92.7543 137.551C103.698 136.913 116.667 134.83 130.019 131.531C143.371 128.231 155.798 124.037 165.746 119.513C167.712 118.619 169.591 117.713 171.35 116.798C183.427 110.513 188.859 104.625 187.494 99.3009Z" fill="url(#paint3_linear_0_1)"/>
<mask id="mask1_0_1" style="mask-type:alpha" maskUnits="userSpaceOnUse" x="63" y="91" width="125" height="47">
<path fill-rule="evenodd" clip-rule="evenodd" d="M186.992 99.4484C185.634 94.1199 178.045 91.456 164.437 91.5335C162.454 91.5448 160.372 91.6201 158.219 91.7463C159.468 93.4773 160.574 95.3053 161.524 97.2125C173.919 96.8195 180.939 98.6272 181.497 100.814C182.054 103 176.737 107.872 165.631 113.317C156.837 117.628 144.415 122.298 128.389 126.279C112.363 130.26 99.1816 131.951 89.3671 132.262C76.9724 132.655 69.952 130.847 69.3941 128.661C68.8369 126.474 74.1536 121.602 85.2602 116.157C85.1827 114.033 85.2796 111.907 85.5499 109.798C83.5928 110.693 81.7225 111.599 79.9711 112.516C67.947 118.805 62.5397 124.697 63.8987 130.026C65.2576 135.355 72.8467 138.018 86.4548 137.941C88.4371 137.93 90.5191 137.854 92.6722 137.728C103.567 137.089 116.479 135.005 129.772 131.703C143.065 128.401 155.437 124.204 165.341 119.677C167.298 118.782 169.169 117.875 170.92 116.959C182.944 110.669 188.351 104.777 186.992 99.4484Z" fill="white"/>
</mask>
<g mask="url(#mask1_0_1)">
<path d="M54.5747 114.737C92.323 108.868 88.7033 125.602 88.7033 125.602L98.0111 104.82L83.0152 101.754" fill="url(#paint4_linear_0_1)"/>
<path d="M147.911 85.911C166.785 88.4536 168.854 101.754 168.854 101.754L152.824 104.82L147.653 99.9368" fill="url(#paint5_linear_0_1)"/>
</g>
<mask id="mask2_0_1" style="mask-type:alpha" maskUnits="userSpaceOnUse" x="0" y="74" width="500" height="297">
<path fill-rule="evenodd" clip-rule="evenodd" d="M500 236.288C500 310.474 388.071 370.613 250 370.613C111.929 370.613 0 310.474 0 236.288C0 162.103 118.181 74.0286 256.252 74.0286C394.323 74.0286 500 162.103 500 236.288Z" fill="white"/>
</mask>
<g mask="url(#mask2_0_1)">
<path d="M168.621 335.309C170.962 330.101 173.143 324.83 175.023 319.45C176.929 314.086 178.472 308.6 179.641 303.03C180.783 297.469 181.451 291.814 181.434 286.192C181.407 280.576 180.639 274.995 178.96 269.761C177.294 264.59 174.685 259.771 171.267 255.544C167.894 251.376 163.822 247.87 159.392 244.969C157.169 243.533 154.869 242.22 152.502 241.035C151.308 240.467 150.122 239.88 148.903 239.369C147.698 238.822 146.462 238.353 145.235 237.861C142.759 236.936 140.26 236.064 137.718 235.334C137.082 235.151 136.453 234.946 135.812 234.782L133.894 234.272L130.007 233.242C124.806 231.806 119.701 230.042 114.724 227.96C113.487 227.411 112.237 226.896 111.017 226.304C110.405 226.013 109.788 225.736 109.181 225.433L107.363 224.518C106.754 224.221 106.163 223.881 105.563 223.564C104.965 223.242 104.364 222.925 103.777 222.578L102.008 221.559L100.265 220.487C97.9555 219.033 95.6936 217.488 93.5107 215.817C91.321 214.134 89.2225 212.336 87.2242 210.431C83.2217 206.598 79.5965 202.244 76.7751 197.281C75.3453 194.781 74.17 192.145 73.2667 189.411C73.1468 189.07 73.0585 188.714 72.9529 188.367C72.8559 188.016 72.7403 187.671 72.6587 187.315C72.4961 186.602 72.3027 185.899 72.1867 185.173C72.1224 184.812 72.05 184.453 71.9928 184.091L71.8516 182.997C71.8298 182.815 71.8007 182.633 71.7851 182.45L71.7445 181.898C71.7197 181.531 71.6852 181.164 71.6688 180.795C71.6631 180.056 71.6219 179.319 71.672 178.579L71.6952 178.025C71.7029 177.84 71.7077 177.656 71.7309 177.472L71.8435 176.367C71.8535 176.275 71.8611 176.183 71.8731 176.091L71.9181 175.817L72.0084 175.269C72.0692 174.904 72.1212 174.538 72.2135 174.179L72.4624 173.099L72.7768 172.038C72.8317 171.862 72.8777 171.683 72.94 171.509L73.132 170.992L73.324 170.475C73.3886 170.303 73.4482 170.128 73.5276 169.963L73.9771 168.96C74.0494 168.792 74.1302 168.628 74.2192 168.468L74.4755 167.985C74.799 167.329 75.2067 166.728 75.582 166.108C75.7846 165.808 75.9989 165.518 76.2069 165.224L76.521 164.783L76.8606 164.366L77.5414 163.535L78.2691 162.752L78.6331 162.362L79.0185 161.997L79.7889 161.268C80.8393 160.343 81.9545 159.495 83.1258 158.729C85.431 157.235 87.9036 156.014 90.493 155.093C93.0382 154.186 95.6565 153.499 98.3192 153.038C100.958 152.578 103.623 152.279 106.298 152.14C103.627 152.33 100.97 152.681 98.3407 153.191C95.6961 153.701 93.0999 154.436 90.5805 155.387C88.0312 156.348 85.603 157.602 83.3449 159.124C82.2055 159.899 81.1226 160.754 80.1044 161.682L79.3614 162.411L78.99 162.775L78.6404 163.164L77.942 163.941L77.2915 164.764L76.9672 165.176L76.6687 165.61C76.4713 165.901 76.2673 166.186 76.0752 166.481C75.721 167.091 75.3343 167.679 75.0319 168.321L74.7914 168.794C74.7075 168.95 74.6319 169.11 74.5647 169.274L74.146 170.252C74.0715 170.412 74.0171 170.582 73.9574 170.75L73.7802 171.252L73.6029 171.755C73.5454 171.923 73.5042 172.097 73.4539 172.268L73.1672 173.296L72.9446 174.342C72.8608 174.689 72.8169 175.043 72.7641 175.396L72.6857 175.925L72.6465 176.189C72.6363 176.278 72.6306 176.367 72.6225 176.456L72.5313 177.522C72.5115 177.699 72.5101 177.878 72.5058 178.056L72.4923 178.59C72.4549 179.303 72.5077 180.015 72.5239 180.726C72.5457 181.081 72.5852 181.435 72.6148 181.789L72.6625 182.32C72.6803 182.496 72.7117 182.671 72.7356 182.847L72.8891 183.9C72.9503 184.249 73.0264 184.595 73.0941 184.943C73.2169 185.641 73.4168 186.319 73.5847 187.005C73.6689 187.348 73.7872 187.68 73.8867 188.018C73.9947 188.353 74.0851 188.695 74.2073 189.024C75.1292 191.662 76.3142 194.201 77.7444 196.603C80.5724 201.382 84.1866 205.571 88.1702 209.248C90.1606 211.077 92.2472 212.799 94.4211 214.406C96.5903 216.002 98.8366 217.475 101.129 218.86L102.858 219.878L104.613 220.846C105.195 221.175 105.791 221.475 106.384 221.78C106.98 222.08 107.565 222.403 108.17 222.682L109.972 223.547C110.573 223.833 111.185 224.094 111.792 224.368C113 224.927 114.24 225.409 115.464 225.925C120.398 227.878 125.451 229.515 130.592 230.828L134.464 231.774L136.425 232.256C137.081 232.41 137.727 232.606 138.378 232.78C140.983 233.474 143.555 234.315 146.11 235.214C147.379 235.695 148.656 236.152 149.907 236.69C151.17 237.192 152.406 237.774 153.649 238.336C156.129 239.52 158.543 240.838 160.878 242.285C165.556 245.225 169.934 248.839 173.624 253.235C175.488 255.455 177.144 257.842 178.569 260.366C180.018 262.938 181.228 265.638 182.184 268.43C184.099 274.063 185.018 280.067 185.145 286.05C185.262 292.041 184.647 298.017 183.549 303.854C182.43 309.661 180.922 315.386 179.034 320.992C177.184 326.577 175.033 332.029 172.734 337.379L168.621 335.309Z" fill="#2BAB70"/>
<path d="M182.432 303.431C186.323 311.421 194.815 311.738 194.815 311.738C194.815 311.738 192.941 303.702 182.432 303.431Z" fill="#2BAB70"/>
<path d="M184.341 305.293C191.139 308.086 194.992 302.858 194.992 302.858C194.992 302.858 189.031 298.745 184.341 305.293Z" fill="#2BAB70"/>
<path d="M155.272 241.383C162.122 235.977 161.467 226.768 161.467 226.768C161.467 226.768 154.352 230.006 155.272 241.383Z" fill="#2BAB70"/>
<path d="M156.757 239.042C158.547 231.286 153.355 227.921 153.355 227.921C153.355 227.921 150.268 234.974 156.757 239.042Z" fill="#2BAB70"/>
<path d="M101.451 218.929C95.7852 219.532 93.2263 225.209 93.2263 225.209C93.2263 225.209 98.3534 225.985 101.451 218.929Z" fill="#2BAB70"/>
<path d="M99.8505 219.749C96.3475 223.647 98.2628 227.59 98.2628 227.59C98.2628 227.59 102.288 224.597 99.8505 219.749Z" fill="#2BAB70"/>
<path d="M72.6821 182.085C70.5604 179.001 66.9502 179.467 66.9502 179.467C66.9502 179.467 68.2219 182.712 72.6821 182.085Z" fill="#2BAB70"/>
<path d="M71.764 181.437C68.7226 180.743 67.405 183.211 67.405 183.211C67.405 183.211 70.1709 184.52 71.764 181.437Z" fill="#2BAB70"/>
<path d="M416.52 215.096C398.952 250.822 368.573 275.566 330.506 292.177C292.439 308.788 297.929 315.116 274.164 330.05C274.164 330.05 276.564 324.244 338.31 271.733C360.016 253.273 401.834 224.898 416.52 215.096Z" fill="url(#paint6_linear_0_1)"/>
<path d="M167.535 290.488C139.437 240.434 96.3352 249.293 96.3352 249.293C96.3352 249.293 113.559 254.882 133.712 289.943C137.907 290.773 143.491 292.012 143.491 292.012L136.725 295.369C139.236 300.048 141.779 305.185 144.33 310.836C170.267 368.294 240.649 351.129 245.431 349.889C224.888 340.995 184.328 320.402 167.535 290.488Z" fill="url(#paint7_linear_0_1)"/>
<path d="M96.3352 249.293C96.3352 249.293 139.437 240.433 167.535 290.488C184.328 320.402 224.888 340.995 245.431 349.889C245.601 349.845 245.696 349.819 245.696 349.819C195.684 214.757 96.3352 249.293 96.3352 249.293Z" fill="url(#paint8_linear_0_1)"/>
<path d="M213.121 277.422C212.849 276.38 212.587 275.336 212.262 274.31L208.543 261.939C207.992 260.189 207.431 258.441 206.86 256.696C207.787 256.885 208.293 256.974 208.293 256.974C208.293 256.974 207.45 255.695 205.784 253.438C201.45 240.395 196.616 227.52 191.042 214.961C218.057 194.306 210.623 152.413 210.623 152.413C210.623 152.413 192.07 177.204 190.174 213.015L187.728 207.748C186.819 205.798 185.941 203.835 184.939 201.93C183.16 198.44 181.428 194.929 179.526 191.505C179.538 191.512 179.55 191.52 179.562 191.527C175.479 157.039 134.228 142.748 134.228 142.748C134.228 142.748 147.221 171.797 178.555 190.916C180.563 194.642 182.34 198.485 184.178 202.294C185.135 204.214 185.968 206.193 186.833 208.156L189.415 214.05C189.636 214.573 189.845 215.1 190.064 215.624C190.063 215.649 190.062 215.673 190.061 215.697C190.07 215.691 190.077 215.684 190.086 215.678C194.598 226.498 198.566 237.529 202.138 248.685C188.943 232.064 154.624 194.411 100.104 172.866C117.353 232.999 187.331 252.308 204.483 256.183C205.129 258.313 205.764 260.447 206.387 262.583L209.818 274.971C210.12 275.999 210.357 277.044 210.605 278.087L211.35 281.213L212.838 287.465L214.327 293.715L214.699 295.278L215.018 296.852L215.648 300.003L218.166 312.604L218.796 315.753C219.012 316.801 219.151 317.865 219.332 318.92L220.36 325.262L222.416 337.941C222.604 338.995 222.717 340.061 222.853 341.122L223.251 344.31L224.047 350.683L225.639 363.426L230.11 362.902L228.228 350.113L227.288 343.72L226.817 340.524C226.657 339.459 226.52 338.391 226.307 337.335L223.961 324.625L222.788 318.272C222.583 317.215 222.42 316.151 222.179 315.101L221.477 311.947L218.669 299.335L217.967 296.183L217.612 294.608L217.203 293.045L215.57 286.795L215.507 286.552C249.924 260.412 240.475 207.16 240.475 207.16C240.475 207.16 217.26 238.174 214.602 283.09L213.937 280.545L213.121 277.422Z" fill="url(#paint9_linear_0_1)"/>
<path d="M333.464 308.658C372.031 282.553 398.626 297.654 398.626 297.654C398.626 297.654 384.527 297.498 357.185 315.681C353.953 315.301 349.6 314.882 349.6 314.882L353.027 318.518C349.503 320.984 345.781 323.737 341.859 326.819C301.98 358.163 259.579 331.767 256.726 329.925C274.389 328.677 310.416 324.259 333.464 308.658Z" fill="url(#paint10_linear_0_1)"/>
<path d="M398.626 297.654C398.626 297.654 372.031 282.553 333.464 308.658C310.416 324.259 274.389 328.677 256.726 329.925C256.625 329.86 256.569 329.823 256.569 329.823C342.693 253.757 398.626 297.654 398.626 297.654Z" fill="url(#paint11_linear_0_1)"/>
<path d="M327.427 207.253C375.543 161.96 364.688 121.532 364.688 121.532C364.688 121.532 360.001 140.784 326.321 172.985C325.705 177.493 324.751 183.541 324.751 183.541L321.103 177.862C316.6 181.978 311.646 186.284 306.183 190.771C250.644 236.396 271.036 301.498 272.495 305.896C280.287 282.178 298.672 234.321 327.427 207.253Z" fill="#2BAB70"/>
<path d="M364.688 121.532C364.688 121.532 375.543 161.96 327.427 207.253C298.672 234.321 280.287 282.178 272.495 305.896C272.547 306.052 272.577 306.139 272.577 306.139C403.662 209.93 364.688 121.532 364.688 121.532Z" fill="url(#paint12_linear_0_1)"/>
<path d="M252.98 270.096C258.293 271.91 263.663 273.58 269.127 274.979C274.6 276.407 280.155 277.503 285.76 278.262C291.375 279.002 297.064 279.319 302.691 279.033C308.312 278.739 313.865 277.793 319.032 276.06C324.061 274.382 328.764 271.854 332.935 268.588C336.849 265.475 340.25 261.769 343.014 257.605C344.349 255.587 345.566 253.495 346.659 251.337C347.176 250.257 347.714 249.183 348.173 248.082C348.669 246.994 349.085 245.881 349.526 244.774C350.346 242.546 351.112 240.299 351.735 238.022C351.89 237.452 352.069 236.887 352.206 236.314L352.635 234.598L353.5 231.119C354.724 226.439 356.273 221.849 358.136 217.384C358.633 216.266 359.095 215.139 359.635 214.034C359.901 213.48 360.151 212.922 360.429 212.372L361.268 210.725C361.539 210.173 361.854 209.636 362.145 209.091C362.443 208.548 362.734 208.002 363.056 207.468L364.002 205.859L364.999 204.27C366.357 202.162 367.807 200.093 369.386 198.087C370.989 196.061 372.699 194.124 374.51 192.282C378.176 188.567 382.38 185.159 387.227 182.431C389.691 181.04 392.278 179.877 394.955 178.958C395.292 178.835 395.644 178.74 395.987 178.631C396.334 178.528 396.674 178.41 397.027 178.32C397.734 178.143 398.43 177.938 399.151 177.801C399.51 177.727 399.866 177.646 400.226 177.578L401.315 177.401C401.497 177.373 401.677 177.338 401.86 177.316L402.41 177.253C402.777 177.213 403.143 177.165 403.511 177.133C404.251 177.093 404.987 177.021 405.73 177.029L406.285 177.023C406.47 177.021 406.656 177.016 406.841 177.028L407.951 177.074C408.044 177.078 408.136 177.081 408.229 177.087L408.505 177.113L409.057 177.166C409.425 177.203 409.794 177.231 410.157 177.295L411.249 177.462L412.325 177.689C412.503 177.729 412.684 177.761 412.86 177.807L413.386 177.952L413.912 178.096C414.087 178.145 414.264 178.189 414.433 178.251L415.456 178.599C415.629 178.654 415.795 178.72 415.959 178.789L416.454 178.992C417.124 179.246 417.742 179.576 418.38 179.878C418.688 180.042 418.987 180.217 419.291 180.386L419.745 180.642L420.177 180.922L421.039 181.482L421.853 182.086L422.259 182.389L422.641 182.711L423.404 183.355C424.366 184.229 425.263 185.172 426.087 186.177C427.664 188.111 428.993 190.236 430.041 192.5C431.052 194.688 431.852 196.966 432.431 199.305C433.003 201.606 433.417 203.943 433.67 206.3C433.365 203.948 432.9 201.62 432.279 199.331C431.651 197.01 430.804 194.753 429.75 192.591C428.664 190.364 427.303 188.281 425.701 186.389C424.869 185.413 423.967 184.499 423.002 183.654L422.241 183.033L421.861 182.723L421.457 182.434L420.649 181.855L419.797 181.321L419.371 181.055L418.924 180.812C418.624 180.652 418.33 180.486 418.027 180.331C417.401 180.048 416.796 179.735 416.14 179.499L415.657 179.31C415.497 179.245 415.335 179.183 415.167 179.133L414.171 178.81C414.006 178.752 413.834 178.713 413.664 178.668L413.153 178.536L412.643 178.404C412.472 178.361 412.296 178.333 412.123 178.297L411.081 178.094L410.025 177.948C409.675 177.89 409.318 177.869 408.962 177.839L408.43 177.796L408.163 177.774C408.074 177.769 407.985 177.768 407.895 177.765L406.825 177.736C406.646 177.727 406.468 177.735 406.289 177.739L405.753 177.753C405.039 177.755 404.328 177.835 403.617 177.884C403.263 177.92 402.91 177.972 402.557 178.015L402.028 178.083C401.852 178.107 401.678 178.143 401.503 178.173L400.455 178.359C400.109 178.43 399.766 178.514 399.421 178.59C398.727 178.732 398.057 178.941 397.377 179.122C397.037 179.213 396.71 179.333 396.376 179.437C396.045 179.549 395.707 179.645 395.383 179.769C392.802 180.699 390.313 181.866 387.947 183.254C383.284 185.978 379.245 189.368 375.735 193.059C373.999 194.89 372.365 196.814 370.838 198.822C369.332 200.812 367.954 202.864 366.666 204.953L365.72 206.527L364.826 208.122C364.521 208.651 364.247 209.191 363.967 209.729C363.692 210.269 363.394 210.801 363.139 211.348L362.351 212.979C362.09 213.523 361.855 214.076 361.606 214.624C361.099 215.717 360.669 216.833 360.204 217.939C358.468 222.361 357.043 226.898 355.942 231.519L355.16 234.98L354.761 236.733C354.635 237.318 354.466 237.898 354.32 238.481C353.736 240.812 353.003 243.121 352.212 245.419C351.785 246.561 351.383 247.709 350.897 248.838C350.449 249.977 349.919 251.095 349.409 252.218C348.323 254.477 347.106 256.669 345.764 258.786C342.934 263.232 339.418 267.204 335.347 270.556C333.18 272.324 330.863 273.898 328.42 275.262C325.886 276.673 323.237 277.87 320.502 278.839C314.946 280.799 308.974 281.9 302.991 282.299C296.999 282.691 290.991 282.437 285.103 281.749C279.262 281.045 273.469 279.991 267.755 278.591C262.086 277.229 256.537 275.593 251.083 273.824L252.98 270.096Z" fill="url(#paint13_linear_0_1)"/>
<path d="M285.478 280.744C277.646 284.56 277.691 292.066 277.691 292.066C277.691 292.066 285.654 290.026 285.478 280.744Z" fill="url(#paint14_linear_0_1)"/>
<path d="M283.696 282.517C281.189 288.648 286.586 291.795 286.586 291.795C286.586 291.795 290.45 286.339 283.696 282.517Z" fill="url(#paint15_linear_0_1)"/>
<path d="M346.428 253.797C352.132 259.579 361.322 258.558 361.322 258.558C361.322 258.558 357.777 252.438 346.428 253.797Z" fill="url(#paint16_linear_0_1)"/>
<path d="M348.834 254.994C356.674 256.2 359.821 251.458 359.821 251.458C359.821 251.458 352.63 249.075 348.834 254.994Z" fill="url(#paint17_linear_0_1)"/>
<path d="M366.61 205.241C365.765 200.272 359.973 198.288 359.973 198.288C359.973 198.288 359.416 202.848 366.61 205.241Z" fill="url(#paint18_linear_0_1)"/>
<path d="M365.72 203.868C361.67 200.966 357.805 202.845 357.805 202.845C357.805 202.845 360.972 206.251 365.72 203.868Z" fill="url(#paint19_linear_0_1)"/>
<path d="M402.264 178.089C403.999 176.97 404.926 174.949 404.639 172.907C404.639 172.907 401.445 174.185 402.264 178.089Z" fill="url(#paint20_linear_0_1)"/>
<path d="M402.873 177.248C403.438 174.532 400.911 173.488 400.911 173.488C400.911 173.488 399.719 175.991 402.873 177.248Z" fill="url(#paint21_linear_0_1)"/>
<path d="M203.959 332.926L182.664 380.376H326.272L299.574 322.04L203.959 332.926Z" fill="url(#paint22_linear_0_1)"/>
<mask id="mask3_0_1" style="mask-type:alpha" maskUnits="userSpaceOnUse" x="182" y="322" width="145" height="59">
<path fill-rule="evenodd" clip-rule="evenodd" d="M203.959 332.926L182.664 380.376H326.272L299.574 322.04L203.959 332.926Z" fill="white"/>
</mask>
<g mask="url(#mask3_0_1)">
<path d="M182.503 352.037C232.792 354 301.275 336.884 301.275 336.884L231.192 323.129L213.59 327.387L182.503 352.037Z" fill="url(#paint23_linear_0_1)"/>
</g>
<path d="M198.704 215.305C186.445 226.19 155.764 237.488 146.772 241.603C137.746 245.733 115.117 288.917 139.167 301.262C163.482 313.742 191.031 283.688 191.031 283.688C191.031 283.688 189.325 296.869 187.625 311.019C185.591 327.942 191.608 341.605 214.179 342.02C309.522 343.776 316.234 337.31 315.836 310.823L315.017 281.406C315.017 281.406 358.384 319.668 370.959 303.138C398.352 267.131 319.624 215.305 319.624 215.305L198.704 215.305Z" fill="url(#paint24_linear_0_1)"/>
<mask id="mask4_0_1" style="mask-type:alpha" maskUnits="userSpaceOnUse" x="128" y="215" width="249" height="128">
<path fill-rule="evenodd" clip-rule="evenodd" d="M198.704 215.305C186.445 226.19 155.764 237.488 146.772 241.603C137.746 245.733 115.117 288.917 139.167 301.262C163.482 313.742 191.031 283.688 191.031 283.688C191.031 283.688 189.325 296.869 187.625 311.019C185.591 327.942 191.608 341.605 214.179 342.02C309.522 343.776 316.234 337.31 315.836 310.823L315.017 281.406C315.017 281.406 358.384 319.668 370.959 303.138C398.352 267.131 319.624 215.305 319.624 215.305L198.704 215.305Z" fill="white"/>
</mask>
<g mask="url(#mask4_0_1)">
<path d="M141.466 374.772L191.031 283.688L207.869 267.935C207.869 267.935 218.423 349.97 321.565 342.352C365.772 339.086 141.466 374.772 141.466 374.772Z" fill="url(#paint25_linear_0_1)"/>
<path d="M323.736 300.641L315.017 281.406C315.017 281.406 298.533 265.112 297.333 261.919L298.533 265.112L321.736 307.826L323.736 300.641Z" fill="url(#paint26_linear_0_1)"/>
</g>
<path d="M250.281 231.029L241.234 241.624L259.312 263.446L269.582 235.923L251.572 231.584" fill="url(#paint27_linear_0_1)"/>
<path d="M219.745 231.507L259.312 263.446L236.441 214.007L219.745 231.507Z" fill="white"/>
<path d="M269.311 214.007L259.312 263.446L289.735 221.136L269.311 214.007Z" fill="white"/>
<path d="M291.665 146.654C292.064 168.111 274.603 185.827 252.657 185.827C230.712 185.827 213.248 168.111 213.643 146.654C214.03 125.626 231.491 108.884 252.651 108.884C273.81 108.884 291.274 125.626 291.665 146.654Z" fill="url(#paint28_linear_0_1)"/>
<path d="M278.674 103.284C278.784 111.95 271.573 119.029 262.567 119.029C253.561 119.029 246.282 111.95 246.307 103.284C246.333 94.6894 253.545 87.7747 262.415 87.7747C271.286 87.7747 278.565 94.6894 278.674 103.284Z" fill="url(#paint29_linear_0_1)"/>
<mask id="mask5_0_1" style="mask-type:alpha" maskUnits="userSpaceOnUse" x="246" y="87" width="33" height="33">
<path fill-rule="evenodd" clip-rule="evenodd" d="M278.674 103.284C278.784 111.95 271.573 119.029 262.567 119.029C253.561 119.029 246.282 111.95 246.307 103.284C246.333 94.6894 253.545 87.7747 262.415 87.7747C271.286 87.7747 278.565 94.6894 278.674 103.284Z" fill="white"/>
</mask>
<g mask="url(#mask5_0_1)">
<path d="M246.292 108.519C246.292 108.519 258.395 117.563 276.615 112.981L269.823 121.463L249.971 121.663L240.839 110.681L246.292 108.519Z" fill="url(#paint30_linear_0_1)"/>
</g>
<path d="M181.122 153.37C181.122 153.37 179.585 135.982 180.563 124.102L243.855 135.007L243.788 151.269L181.122 153.37Z" fill="url(#paint31_linear_0_1)"/>
<path d="M323.986 153.37C323.986 153.37 326.19 135.982 325.028 124.102L241.71 135.007L241.627 151.269L323.986 153.37Z" fill="url(#paint32_linear_0_1)"/>
<path d="M175.065 130.752L176.436 234.51L249.295 238.861L249.445 135.007L175.065 130.752Z" fill="url(#paint33_linear_0_1)"/>
<path d="M327.038 130.752L325.528 234.51L252.662 238.861L252.653 135.007L327.038 130.752Z" fill="url(#paint34_linear_0_1)"/>
<path d="M264.971 153.37L265.063 169.03L319.411 164.357L320.026 148.674L264.971 153.37Z" fill="url(#paint35_linear_0_1)"/>
<path d="M257.118 238.861H243.428L243.855 135.006H256.899L257.118 238.861Z" fill="url(#paint36_linear_0_1)"/>
<path d="M159.24 186.714C159.059 184.076 159.95 181.476 161.713 179.502C166.376 174.257 170.896 170.163 172.668 169.987C174.781 169.777 188.558 163.085 189.786 164.128C191.015 165.172 190.96 170.721 181.457 174.718C181.457 174.718 191.67 171.667 192.803 172.613C193.936 173.56 191.678 178.835 183.281 180.317C174.872 181.801 172.264 186.479 172.264 186.479C172.264 186.479 188.866 184.563 191.869 183.287C194.869 182.014 196.671 181.907 196.73 183.712C196.789 185.52 192.757 189.466 190.939 189.893C190.939 189.893 195.107 195.035 177.366 197.616C177.366 197.616 176.229 200.522 178.771 204.093C182.959 209.977 168.359 250.2 165.119 261.036C164.62 262.709 163.827 264.28 162.778 265.677C157.584 272.58 141.131 292.312 134.601 275.339C128.079 258.392 166.051 221.559 162.699 208.76C160.505 200.383 159.601 191.65 159.24 186.714Z" fill="url(#paint37_linear_0_1)"/>
<mask id="mask6_0_1" style="mask-type:alpha" maskUnits="userSpaceOnUse" x="133" y="164" width="64" height="119">
<path fill-rule="evenodd" clip-rule="evenodd" d="M159.24 186.714C159.059 184.076 159.95 181.476 161.713 179.502C166.376 174.257 170.896 170.163 172.668 169.987C174.781 169.777 188.558 163.085 189.786 164.128C191.015 165.172 190.96 170.721 181.457 174.718C181.457 174.718 191.67 171.667 192.803 172.613C193.936 173.56 191.678 178.835 183.281 180.317C174.872 181.801 172.264 186.479 172.264 186.479C172.264 186.479 188.866 184.563 191.869 183.287C194.869 182.014 196.671 181.907 196.73 183.712C196.789 185.52 192.757 189.466 190.939 189.893C190.939 189.893 195.107 195.035 177.366 197.616C177.366 197.616 176.229 200.522 178.771 204.093C182.959 209.977 168.359 250.2 165.119 261.036C164.62 262.709 163.827 264.28 162.778 265.677C157.584 272.58 141.131 292.312 134.601 275.339C128.079 258.392 166.051 221.559 162.699 208.76C160.505 200.383 159.601 191.65 159.24 186.714Z" fill="white"/>
</mask>
<g mask="url(#mask6_0_1)">
<path d="M192.524 170.059L181.457 174.718C181.457 174.718 175.376 176.669 171.91 178.75C171.91 178.75 182.429 172.186 188.337 170.184C191.143 169.234 192.524 170.059 192.524 170.059Z" fill="url(#paint38_linear_0_1)"/>
<path d="M195.024 188.792L190.939 189.893C190.939 189.893 178.562 192.803 174.174 192.803C174.174 192.803 195.041 188.151 195.615 187.511C196.189 186.872 195.024 188.792 195.024 188.792Z" fill="url(#paint39_linear_0_1)"/>
<path opacity="0.34" d="M137.718 235.334C130.25 281.876 137.992 282.49 150.945 278.201C163.899 273.912 126.799 303.615 126.799 303.615L106.092 280.799" fill="url(#paint40_linear_0_1)"/>
</g>
<path d="M343.024 192.193C343.222 189.37 342.273 186.586 340.392 184.469C335.419 178.854 330.598 174.472 328.706 174.284C326.45 174.059 312.771 162.359 311.461 163.47C310.149 164.582 307.174 168.172 319.31 179.348C319.31 179.348 308.409 176.082 307.197 177.094C305.984 178.108 308.383 183.755 317.35 185.342C326.33 186.931 329.109 191.941 329.109 191.941C329.109 191.941 311.374 189.889 308.168 188.523C304.967 187.158 303.042 187.045 302.974 188.978C302.906 190.914 307.204 195.141 309.146 195.599C309.146 195.599 304.679 201.109 323.635 203.875C323.635 203.875 324.845 206.991 322.121 210.821C317.63 217.132 333.176 260.338 336.629 271.997C337.16 273.797 338.007 275.488 339.129 276.993C344.684 284.427 362.298 305.694 369.308 287.399C376.3 269.152 335.693 229.561 339.296 215.826C341.653 206.842 342.632 197.481 343.024 192.193Z" fill="url(#paint41_linear_0_1)"/>
<mask id="mask7_0_1" style="mask-type:alpha" maskUnits="userSpaceOnUse" x="302" y="163" width="69" height="132">
<path fill-rule="evenodd" clip-rule="evenodd" d="M343.024 192.193C343.222 189.37 342.273 186.586 340.392 184.469C335.419 178.854 330.598 174.472 328.706 174.284C326.45 174.059 312.771 162.359 311.461 163.47C310.149 164.582 307.174 168.172 319.31 179.348C319.31 179.348 308.409 176.082 307.197 177.094C305.984 178.108 308.383 183.755 317.35 185.342C326.33 186.931 329.109 191.941 329.109 191.941C329.109 191.941 311.374 189.889 308.168 188.523C304.967 187.158 303.042 187.045 302.974 188.978C302.906 190.914 307.204 195.141 309.146 195.599C309.146 195.599 304.679 201.109 323.635 203.875C323.635 203.875 324.845 206.991 322.121 210.821C317.63 217.132 333.176 260.338 336.629 271.997C337.16 273.797 338.007 275.488 339.129 276.993C344.684 284.427 362.298 305.694 369.308 287.399C376.3 269.152 335.693 229.561 339.296 215.826C341.653 206.842 342.632 197.481 343.024 192.193Z" fill="white"/>
</mask>
<g mask="url(#mask7_0_1)">
<path d="M307.501 174.361L319.31 179.348C319.31 179.348 325.802 181.436 329.5 183.664C329.5 183.664 318.277 176.637 311.972 174.495C308.978 173.478 307.501 174.361 307.501 174.361Z" fill="url(#paint42_linear_0_1)"/>
<path d="M304.783 194.419L309.146 195.599C309.146 195.599 322.366 198.717 327.056 198.717C327.056 198.717 304.767 193.733 304.155 193.047C303.543 192.362 304.783 194.419 304.783 194.419Z" fill="url(#paint43_linear_0_1)"/>
<path opacity="0.34" d="M362.036 253.184C369.308 287.399 368.082 299.522 349.614 288.683C331.146 277.844 344.87 305.122 344.87 305.122L372.275 301.267L375.627 277.91L360.401 246.792" fill="url(#paint44_linear_0_1)"/>
</g>
<ellipse cx="382.574" cy="273.531" rx="4.52529" ry="4.51568" fill="url(#paint45_linear_0_1)"/>
<ellipse cx="171.015" cy="353.236" rx="3.19987" ry="3.19307" fill="url(#paint46_linear_0_1)"/>
</g>
<path d="M337.258 137.516L411.457 113.418L368.661 145.881L337.258 137.516Z" fill="url(#paint47_linear_0_1)"/>
<path d="M368.56 164.431V145.822L411.457 113.418L368.56 164.431Z" fill="url(#paint48_linear_0_1)"/>
<path d="M390.588 148.199L374.854 149.488L368.56 165.59L380.95 151.189" fill="url(#paint49_linear_0_1)"/>
<path d="M375.517 148.951L400.32 156.315L411.457 113.418L375.517 148.951Z" fill="url(#paint50_linear_0_1)"/>
<mask id="mask8_0_1" style="mask-type:alpha" maskUnits="userSpaceOnUse" x="375" y="113" width="37" height="44">
<path fill-rule="evenodd" clip-rule="evenodd" d="M375.605 148.848L400.339 156.164L411.446 113.544L375.605 148.848Z" fill="white"/>
</mask>
<g mask="url(#mask8_0_1)">
<path d="M411.446 110.475C400.169 160.353 396.941 151.378 373.629 147.553C350.318 143.727 385.285 167.004 385.285 167.004L408.955 170.883L416.486 136.522L414.693 108.812" fill="url(#paint51_linear_0_1)"/>
</g>
<defs>
<linearGradient id="paint0_linear_0_1" x1="85.6746" y1="131.968" x2="165.671" y2="131.968" gradientUnits="userSpaceOnUse">
<stop offset="0.036" stop-color="#7FE6FF"/>
<stop offset="1" stop-color="#2FD5FF"/>
</linearGradient>
<linearGradient id="paint1_linear_0_1" x1="46.6915" y1="105.758" x2="62.3292" y2="105.758" gradientUnits="userSpaceOnUse">
<stop offset="0.036" stop-color="#7FE6FF"/>
<stop offset="1" stop-color="#2FD5FF"/>
</linearGradient>
<linearGradient id="paint2_linear_0_1" x1="92.6313" y1="155.156" x2="165.671" y2="155.156" gradientUnits="userSpaceOnUse">
<stop offset="0.036" stop-color="#7FE6FF"/>
<stop offset="1" stop-color="#2FD5FF"/>
</linearGradient>
<linearGradient id="paint3_linear_0_1" x1="-25.8706" y1="5.69726" x2="-32.1681" y2="145.042" gradientUnits="userSpaceOnUse">
<stop offset="0.0083" stop-color="#00CAFE"/>
<stop offset="1" stop-color="#0088FA"/>
</linearGradient>
<linearGradient id="paint4_linear_0_1" x1="65.938" y1="149.87" x2="66.057" y2="148.506" gradientUnits="userSpaceOnUse">
<stop offset="0.0083" stop-color="#00CAFE"/>
<stop offset="1" stop-color="#0088FA"/>
</linearGradient>
<linearGradient id="paint5_linear_0_1" x1="137.095" y1="170.134" x2="137.408" y2="168.777" gradientUnits="userSpaceOnUse">
<stop offset="0.0083" stop-color="#00CAFE"/>
<stop offset="1" stop-color="#0088FA"/>
</linearGradient>
<linearGradient id="paint6_linear_0_1" x1="274.164" y1="330.05" x2="416.52" y2="330.05" gradientUnits="userSpaceOnUse">
<stop offset="0.0035" stop-color="#69ED87"/>
<stop offset="1" stop-color="#3CBD53"/>
</linearGradient>
<linearGradient id="paint7_linear_0_1" x1="78.5095" y1="298.538" x2="103.456" y2="306.132" gradientUnits="userSpaceOnUse">
<stop offset="0.0035" stop-color="#69ED87"/>
<stop offset="1" stop-color="#3CBD53"/>
</linearGradient>
<linearGradient id="paint8_linear_0_1" x1="96.3352" y1="349.889" x2="245.696" y2="349.889" gradientUnits="userSpaceOnUse">
<stop offset="0.0035" stop-color="#69ED87"/>
<stop offset="1" stop-color="#3CBD53"/>
</linearGradient>
<linearGradient id="paint9_linear_0_1" x1="147.934" y1="89.5932" x2="156.217" y2="134.374" gradientUnits="userSpaceOnUse">
<stop offset="0.0035" stop-color="#69ED87"/>
<stop offset="1" stop-color="#3CBD53"/>
</linearGradient>
<linearGradient id="paint10_linear_0_1" x1="428.927" y1="322.003" x2="408.359" y2="283.541" gradientUnits="userSpaceOnUse">
<stop offset="0.0035" stop-color="#69ED87"/>
<stop offset="1" stop-color="#3CBD53"/>
</linearGradient>
<linearGradient id="paint11_linear_0_1" x1="256.569" y1="329.925" x2="398.626" y2="329.925" gradientUnits="userSpaceOnUse">
<stop offset="0.0035" stop-color="#69ED87"/>
<stop offset="1" stop-color="#3CBD53"/>
</linearGradient>
<linearGradient id="paint12_linear_0_1" x1="272.495" y1="306.139" x2="370.107" y2="306.139" gradientUnits="userSpaceOnUse">
<stop offset="0.0035" stop-color="#69ED87"/>
<stop offset="1" stop-color="#3CBD53"/>
</linearGradient>
<linearGradient id="paint13_linear_0_1" x1="251.083" y1="282.484" x2="433.67" y2="282.484" gradientUnits="userSpaceOnUse">
<stop offset="0.0035" stop-color="#69ED87"/>
<stop offset="1" stop-color="#3CBD53"/>
</linearGradient>
<linearGradient id="paint14_linear_0_1" x1="277.691" y1="292.066" x2="285.481" y2="292.066" gradientUnits="userSpaceOnUse">
<stop offset="0.0035" stop-color="#69ED87"/>
<stop offset="1" stop-color="#3CBD53"/>
</linearGradient>
<linearGradient id="paint15_linear_0_1" x1="283.032" y1="291.795" x2="287.686" y2="291.795" gradientUnits="userSpaceOnUse">
<stop offset="0.0035" stop-color="#69ED87"/>
<stop offset="1" stop-color="#3CBD53"/>
</linearGradient>
<linearGradient id="paint16_linear_0_1" x1="346.428" y1="258.628" x2="361.322" y2="258.628" gradientUnits="userSpaceOnUse">
<stop offset="0.0035" stop-color="#69ED87"/>
<stop offset="1" stop-color="#3CBD53"/>
</linearGradient>
<linearGradient id="paint17_linear_0_1" x1="348.834" y1="255.191" x2="359.821" y2="255.191" gradientUnits="userSpaceOnUse">
<stop offset="0.0035" stop-color="#69ED87"/>
<stop offset="1" stop-color="#3CBD53"/>
</linearGradient>
<linearGradient id="paint18_linear_0_1" x1="359.963" y1="205.241" x2="366.61" y2="205.241" gradientUnits="userSpaceOnUse">
<stop offset="0.0035" stop-color="#69ED87"/>
<stop offset="1" stop-color="#3CBD53"/>
</linearGradient>
<linearGradient id="paint19_linear_0_1" x1="357.805" y1="204.715" x2="365.72" y2="204.715" gradientUnits="userSpaceOnUse">
<stop offset="0.0035" stop-color="#69ED87"/>
<stop offset="1" stop-color="#3CBD53"/>
</linearGradient>
<linearGradient id="paint20_linear_0_1" x1="402.13" y1="178.091" x2="404.692" y2="178.091" gradientUnits="userSpaceOnUse">
<stop offset="0.0035" stop-color="#69ED87"/>
<stop offset="1" stop-color="#3CBD53"/>
</linearGradient>
<linearGradient id="paint21_linear_0_1" x1="400.69" y1="177.248" x2="402.956" y2="177.248" gradientUnits="userSpaceOnUse">
<stop offset="0.0035" stop-color="#69ED87"/>
<stop offset="1" stop-color="#3CBD53"/>
</linearGradient>
<linearGradient id="paint22_linear_0_1" x1="182.664" y1="380.376" x2="326.272" y2="380.376" gradientUnits="userSpaceOnUse">
<stop offset="0.0048" stop-color="#FF88D6"/>
<stop offset="0.9986" stop-color="#FF16B4"/>
</linearGradient>
<linearGradient id="paint23_linear_0_1" x1="265.637" y1="406.285" x2="265.637" y2="394.662" gradientUnits="userSpaceOnUse">
<stop offset="0.0048" stop-color="#FF88D6"/>
<stop offset="0.9986" stop-color="#FF16B4"/>
</linearGradient>
<linearGradient id="paint24_linear_0_1" x1="107.263" y1="181.567" x2="105.899" y2="333.788" gradientUnits="userSpaceOnUse">
<stop offset="0.0083" stop-color="#00CAFE"/>
<stop offset="1" stop-color="#0088FA"/>
</linearGradient>
<linearGradient id="paint25_linear_0_1" x1="262.401" y1="467.734" x2="261.76" y2="447.737" gradientUnits="userSpaceOnUse">
<stop offset="0.0083" stop-color="#00CAFE"/>
<stop offset="1" stop-color="#0088FA"/>
</linearGradient>
<linearGradient id="paint26_linear_0_1" x1="324.706" y1="387.701" x2="320.974" y2="374.972" gradientUnits="userSpaceOnUse">
<stop offset="0.0083" stop-color="#00CAFE"/>
<stop offset="1" stop-color="#0088FA"/>
</linearGradient>
<linearGradient id="paint27_linear_0_1" x1="207.237" y1="189.199" x2="208.373" y2="298.458" gradientUnits="userSpaceOnUse">
<stop offset="0.0048" stop-color="#FF88D6"/>
<stop offset="0.9986" stop-color="#FF16B4"/>
</linearGradient>
<linearGradient id="paint28_linear_0_1" x1="213.636" y1="185.827" x2="291.672" y2="185.827" gradientUnits="userSpaceOnUse">
<stop offset="0.1023" stop-color="#915758"/>
<stop offset="0.8855" stop-color="#2C090B"/>
</linearGradient>
<linearGradient id="paint29_linear_0_1" x1="246.307" y1="119.029" x2="278.675" y2="119.029" gradientUnits="userSpaceOnUse">
<stop offset="0.1023" stop-color="#915758"/>
<stop offset="0.8855" stop-color="#2C090B"/>
</linearGradient>
<linearGradient id="paint30_linear_0_1" x1="81.0268" y1="103.097" x2="81.2027" y2="233.606" gradientUnits="userSpaceOnUse">
<stop offset="0.0048" stop-color="#FF88D6"/>
<stop offset="0.9986" stop-color="#FF16B4"/>
</linearGradient>
<linearGradient id="paint31_linear_0_1" x1="69.8978" y1="103.624" x2="70.1737" y2="234.133" gradientUnits="userSpaceOnUse">
<stop offset="0.0014" stop-color="#F8F9FD"/>
<stop offset="0.9609" stop-color="#808CE0"/>
</linearGradient>
<linearGradient id="paint32_linear_0_1" x1="96.4101" y1="102.842" x2="96.5694" y2="233.35" gradientUnits="userSpaceOnUse">
<stop offset="0.0014" stop-color="#F8F9FD"/>
<stop offset="0.9609" stop-color="#808CE0"/>
</linearGradient>
<linearGradient id="paint33_linear_0_1" x1="175.065" y1="238.861" x2="249.445" y2="238.861" gradientUnits="userSpaceOnUse">
<stop offset="0.1011" stop-color="#FF4F37"/>
<stop offset="0.8855" stop-color="#FF8646"/>
</linearGradient>
<linearGradient id="paint34_linear_0_1" x1="221.113" y1="304.753" x2="366.34" y2="291.073" gradientUnits="userSpaceOnUse">
<stop offset="0.1011" stop-color="#FF4F37"/>
<stop offset="0.8855" stop-color="#FF8646"/>
</linearGradient>
<linearGradient id="paint35_linear_0_1" x1="261.086" y1="113.682" x2="261.383" y2="133.221" gradientUnits="userSpaceOnUse">
<stop offset="0.1011" stop-color="#FF4F37"/>
<stop offset="0.8855" stop-color="#FF8646"/>
</linearGradient>
<linearGradient id="paint36_linear_0_1" x1="236.418" y1="106.902" x2="261.068" y2="309.912" gradientUnits="userSpaceOnUse">
<stop offset="0.1011" stop-color="#FF3E30"/>
<stop offset="0.8855" stop-color="#FF783F"/>
</linearGradient>
<linearGradient id="paint37_linear_0_1" x1="133.846" y1="282.053" x2="196.73" y2="282.053" gradientUnits="userSpaceOnUse">
<stop offset="0.1023" stop-color="#FFAFBC"/>
<stop offset="0.8855" stop-color="#FFDDDC"/>
</linearGradient>
<linearGradient id="paint38_linear_0_1" x1="171.91" y1="178.75" x2="192.524" y2="178.75" gradientUnits="userSpaceOnUse">
<stop offset="0.1023" stop-color="#FFAFBC"/>
<stop offset="0.8855" stop-color="#FFDDDC"/>
</linearGradient>
<linearGradient id="paint39_linear_0_1" x1="174.174" y1="192.803" x2="195.774" y2="192.803" gradientUnits="userSpaceOnUse">
<stop offset="0.1023" stop-color="#FFAFBC"/>
<stop offset="0.8855" stop-color="#FFDDDC"/>
</linearGradient>
<linearGradient id="paint40_linear_0_1" x1="106.092" y1="303.615" x2="153.69" y2="303.615" gradientUnits="userSpaceOnUse">
<stop offset="0.1011" stop-color="#FF7638"/>
<stop offset="0.8855" stop-color="#FF3929"/>
</linearGradient>
<linearGradient id="paint41_linear_0_1" x1="302.973" y1="294.637" x2="370.119" y2="294.637" gradientUnits="userSpaceOnUse">
<stop offset="0.1023" stop-color="#FFAFBC"/>
<stop offset="0.8855" stop-color="#FFDDDC"/>
</linearGradient>
<linearGradient id="paint42_linear_0_1" x1="307.501" y1="183.664" x2="329.5" y2="183.664" gradientUnits="userSpaceOnUse">
<stop offset="0.1023" stop-color="#FFAFBC"/>
<stop offset="0.8855" stop-color="#FFDDDC"/>
</linearGradient>
<linearGradient id="paint43_linear_0_1" x1="303.985" y1="198.717" x2="327.056" y2="198.717" gradientUnits="userSpaceOnUse">
<stop offset="0.1023" stop-color="#FFAFBC"/>
<stop offset="0.8855" stop-color="#FFDDDC"/>
</linearGradient>
<linearGradient id="paint44_linear_0_1" x1="339.966" y1="305.122" x2="375.627" y2="305.122" gradientUnits="userSpaceOnUse">
<stop offset="0.1011" stop-color="#FF7638"/>
<stop offset="0.8855" stop-color="#FF3929"/>
</linearGradient>
<linearGradient id="paint45_linear_0_1" x1="309.273" y1="184.716" x2="304.081" y2="336.903" gradientUnits="userSpaceOnUse">
<stop offset="0.0083" stop-color="#00CAFE"/>
<stop offset="1" stop-color="#0088FA"/>
</linearGradient>
<linearGradient id="paint46_linear_0_1" x1="167.815" y1="356.429" x2="174.215" y2="356.429" gradientUnits="userSpaceOnUse">
<stop offset="0.0035" stop-color="#69ED87"/>
<stop offset="1" stop-color="#3CBD53"/>
</linearGradient>
<linearGradient id="paint47_linear_0_1" x1="397.911" y1="182.056" x2="423.358" y2="95.8019" gradientUnits="userSpaceOnUse">
<stop offset="0.1011" stop-color="#FFDF94"/>
<stop offset="1" stop-color="#FFA200"/>
</linearGradient>
<linearGradient id="paint48_linear_0_1" x1="396.966" y1="182.221" x2="396.623" y2="180.533" gradientUnits="userSpaceOnUse">
<stop offset="0.1011" stop-color="#FFDF94"/>
<stop offset="1" stop-color="#FFA200"/>
</linearGradient>
<linearGradient id="paint49_linear_0_1" x1="396.932" y1="169.682" x2="395.832" y2="143.694" gradientUnits="userSpaceOnUse">
<stop offset="0.1011" stop-color="#FFDF94"/>
<stop offset="1" stop-color="#FFA200"/>
</linearGradient>
<linearGradient id="paint50_linear_0_1" x1="361.995" y1="245.899" x2="473.797" y2="193.187" gradientUnits="userSpaceOnUse">
<stop offset="0.1011" stop-color="#FFDF94"/>
<stop offset="1" stop-color="#FFA200"/>
</linearGradient>
<linearGradient id="paint51_linear_0_1" x1="364.493" y1="105.439" x2="370.875" y2="163.092" gradientUnits="userSpaceOnUse">
<stop offset="0.1011" stop-color="#FFDF94"/>
<stop offset="1" stop-color="#FFA200"/>
</linearGradient>
</defs>
</svg>
