

<svg width="466" height="442" viewBox="0 0 466 442" fill="none" xmlns="http://www.w3.org/2000/svg">
<g id="&#233;&#152;&#133;&#232;&#175;&#187;&#230;&#137;&#129;&#229;&#185;&#179;&#231;&#159;&#162;&#233;&#135;&#143;&#228;&#186;&#186;&#231;&#137;&#169;&#230;&#143;&#146;&#231;&#148;&#187;&#233;&#152;&#133;&#232;&#175;&#187;75&#230;&#158;&#156;&#229;&#134;&#187; (1)_&#231;&#148;&#187;&#230;&#157;&#191; 1">
<rect id="Rectangle" x="82.0936" y="378.483" width="287.101" height="52.6673" fill="url(#paint0_linear_6_897)"/>
<g id="Clipped">
<mask id="mask0_6_897" style="mask-type:alpha" maskUnits="userSpaceOnUse" x="82" y="378" width="288" height="54">
<rect id="Rectangle_2" x="82.0936" y="378.483" width="287.101" height="52.6673" fill="white"/>
</mask>
<g mask="url(#mask0_6_897)">
<g id="Group">
<rect id="Rectangle_3" x="118.061" y="369.491" width="36.6102" height="68.7244" fill="url(#paint1_linear_6_897)"/>
<path id="Path" d="M190.915 375.94C178.737 386.904 387.479 371.817 391.333 396.06C395.186 420.303 384.268 358.331 384.268 358.331L356.187 360.471" fill="url(#paint2_linear_6_897)"/>
</g>
</g>
</g>
<rect id="Rectangle_4" x="443.708" y="308.26" width="287.101" height="52.6673" transform="rotate(-180 443.708 308.26)" fill="url(#paint3_linear_6_897)"/>
<g id="Clipped_2">
<mask id="mask1_6_897" style="mask-type:alpha" maskUnits="userSpaceOnUse" x="156" y="255" width="288" height="54">
<rect id="Rectangle_5" x="443.708" y="308.26" width="287.101" height="52.6673" transform="rotate(-180 443.708 308.26)" fill="white"/>
</mask>
<g mask="url(#mask1_6_897)">
<g id="Group_2">
<rect id="Rectangle_6" opacity="0.16" x="407.74" y="315.325" width="36.6102" height="68.7244" transform="rotate(-180 407.74 315.325)" fill="white"/>
<rect id="Rectangle_7" opacity="0.16" x="361.718" y="315.325" width="6.85103" height="68.7244" transform="rotate(-180 361.718 315.325)" fill="white"/>
<path id="Path_2" d="M153.474 296.984C144.054 305.12 338.023 305.12 333.741 308.545C329.459 311.971 161.181 321.391 161.181 321.391L145.766 299.125" fill="url(#paint4_linear_6_897)"/>
</g>
</g>
</g>
<path id="Path_3" d="M427.373 341.231H172.941C182.85 350.062 172.941 375.432 172.941 375.432H427.373C427.373 375.432 417.465 350.062 427.373 341.231Z" fill="url(#paint5_linear_6_897)"/>
<g id="Clipped_3">
<mask id="mask2_6_897" style="mask-type:alpha" maskUnits="userSpaceOnUse" x="172" y="341" width="256" height="35">
<path id="Path_4" fill-rule="evenodd" clip-rule="evenodd" d="M427.373 341.231H172.941C182.85 350.062 172.941 375.432 172.941 375.432H427.373C427.373 375.432 417.465 350.062 427.373 341.231Z" fill="white"/>
</mask>
<g mask="url(#mask2_6_897)">
<g id="Group_3">
<path id="Path_5" d="M169.424 354.469L174.56 354.557L262.555 356.075L164.285 358.332" fill="url(#paint6_linear_6_897)"/>
<path id="Path_6" d="M466.929 364.272L461.792 364.184L373.797 362.666L472.067 360.409" fill="url(#paint7_linear_6_897)"/>
</g>
</g>
</g>
<rect id="Rectangle_8" x="163.03" y="334.808" width="274.255" height="9.63426" fill="url(#paint8_linear_6_897)"/>
<rect id="Rectangle_9" x="163.03" y="368.849" width="274.255" height="9.63426" fill="url(#paint9_linear_6_897)"/>
<rect id="Rectangle_10" x="92.7983" y="321.534" width="305.299" height="16.2712" fill="url(#paint10_linear_6_897)"/>
<g id="Clipped_4">
<mask id="mask3_6_897" style="mask-type:alpha" maskUnits="userSpaceOnUse" x="92" y="321" width="307" height="17">
<rect id="Rectangle_11" x="92.7983" y="321.534" width="305.299" height="16.2712" fill="white"/>
</mask>
<g mask="url(#mask3_6_897)">
<path id="Path_7" d="M245.448 318.822C203.144 332.31 400.967 325.102 406.748 329.67C412.528 334.237 410.601 316.396 410.601 316.396L354.08 309.83" fill="url(#paint11_linear_6_897)"/>
</g>
</g>
<rect id="Rectangle_12" x="117.633" y="308.26" width="305.299" height="16.2712" fill="url(#paint12_linear_6_897)"/>
<path id="Path_8" d="M259.2 207.544L252.925 192.222C252.925 192.222 244.249 143.789 240.856 143.401C237.462 143.014 228.501 150.239 230.977 167.624C231.995 174.77 240.162 207.544 240.162 207.544H259.2Z" fill="url(#paint13_linear_6_897)"/>
<g id="Clipped_5">
<mask id="mask4_6_897" style="mask-type:alpha" maskUnits="userSpaceOnUse" x="230" y="143" width="30" height="65">
<path id="Path_9" fill-rule="evenodd" clip-rule="evenodd" d="M259.2 207.544L252.925 192.222C252.925 192.222 244.249 143.789 240.856 143.401C237.462 143.014 228.501 150.239 230.977 167.624C231.995 174.77 240.162 207.544 240.162 207.544H259.2Z" fill="white"/>
</mask>
<g mask="url(#mask4_6_897)">
<path id="Path_10" d="M235.689 207.544C249.581 195.836 250.292 189.043 242.991 175.466C235.689 161.888 238.9 147.66 238.9 147.66C238.9 147.66 222.099 157.186 222.092 158.786C222.085 160.386 219.963 166.475 220.683 172.179C221.403 177.884 235.689 207.544 235.689 207.544" fill="url(#paint14_linear_6_897)"/>
</g>
</g>
<path id="Path_11" d="M265.925 360.094L261.645 371.732L273.653 376.388L276.82 360.721L265.925 360.094V360.094Z" fill="url(#paint15_linear_6_897)"/>
<g id="Clipped_6">
<mask id="mask5_6_897" style="mask-type:alpha" maskUnits="userSpaceOnUse" x="261" y="360" width="16" height="17">
<path id="Path_12" fill-rule="evenodd" clip-rule="evenodd" d="M265.925 360.094L261.645 371.732L273.653 376.388L276.82 360.721L265.925 360.094V360.094Z" fill="white"/>
</mask>
<g mask="url(#mask5_6_897)">
<path id="Path_13" opacity="0.34" d="M260.172 362.438C271.403 364.986 276.82 363.115 276.82 363.115L258.661 357.907" fill="url(#paint16_linear_6_897)"/>
</g>
</g>
<path id="Path_14" d="M263.739 365.809C263.739 365.809 258.917 374.146 259.217 375.376C259.612 376.989 272.332 402.021 275.45 401.143C278.567 400.264 279.784 389.376 274.536 372.022C274.536 372.022 266.955 375.373 263.739 365.809Z" fill="url(#paint17_linear_6_897)"/>
<path id="Path_15" d="M262.357 354.616C260.754 366.797 278.367 362.84 278.367 362.84C278.367 362.84 306.334 253.756 304.589 242.808C302.845 231.86 269.888 214.59 257.904 214.388C245.919 214.186 218.081 214.811 218.081 214.811L222.798 223.157L216.682 228.163C216.682 228.163 274.947 256.089 277.318 259.691C277.318 259.691 268.228 310.001 262.357 354.616Z" fill="url(#paint18_linear_6_897)"/>
<path id="Path_16" d="M291.948 361.277L297.56 371.47L287.783 377.465L282.501 363.379L291.948 361.277V361.277Z" fill="url(#paint19_linear_6_897)"/>
<g id="Clipped_7">
<mask id="mask6_6_897" style="mask-type:alpha" maskUnits="userSpaceOnUse" x="282" y="361" width="16" height="17">
<path id="Path_17" fill-rule="evenodd" clip-rule="evenodd" d="M291.948 361.277L297.56 371.47L287.783 377.465L282.501 363.379L291.948 361.277V361.277Z" fill="white"/>
</mask>
<g mask="url(#mask6_6_897)">
<path id="Path_18" opacity="0.34" d="M295.316 362.06C288.863 365.93 282.117 365.015 282.117 365.015L288.013 357.247L294.525 356.869" fill="url(#paint20_linear_6_897)"/>
</g>
</g>
<path id="Path_19" d="M294.006 365.015C294.006 365.015 299.137 372.883 299.381 374.044C299.702 375.566 298.863 396.187 295.983 396.513C293.103 396.84 288.25 390.219 287.35 376.252C287.35 376.252 295.194 374.345 294.006 365.015Z" fill="url(#paint21_linear_6_897)"/>
<path id="Path_20" d="M278.367 362.841C284.67 369.681 295.316 359.253 295.316 359.253C295.316 359.253 286.07 265.016 278.115 253.423C270.159 241.831 195.167 218.19 195.167 218.19L180.79 221.828C180.79 221.828 162.015 256.757 188.066 263.014C214.118 269.272 245.444 265.98 245.444 265.98C245.444 265.98 251.042 333.185 278.367 362.841Z" fill="url(#paint22_linear_6_897)"/>
<g id="Clipped_8">
<mask id="mask7_6_897" style="mask-type:alpha" maskUnits="userSpaceOnUse" x="174" y="218" width="122" height="148">
<path id="Path_21" fill-rule="evenodd" clip-rule="evenodd" d="M278.367 362.841C284.67 369.681 295.316 359.253 295.316 359.253C295.316 359.253 286.07 265.016 278.115 253.423C270.159 241.831 195.167 218.19 195.167 218.19L180.79 221.828C180.79 221.828 162.015 256.757 188.066 263.014C214.118 269.272 245.444 265.98 245.444 265.98C245.444 265.98 251.042 333.185 278.367 362.841Z" fill="white"/>
</mask>
<g mask="url(#mask7_6_897)">
<path id="Path_22" d="M242.617 223.341C252.665 238.064 244.697 238.449 201.208 236.007C157.719 233.564 194.105 268.343 194.105 268.343C194.105 268.343 166.737 272.495 166.737 270.985C166.737 269.475 159.091 210.961 159.091 210.961L205.601 212.462" fill="url(#paint23_linear_6_897)"/>
</g>
</g>
<path id="Path_23" d="M160.841 159.53C160.19 144.247 156.196 144.23 163.03 138.295C167.569 134.352 189.593 126.913 208.448 128.689C227.303 130.465 240.856 143.401 240.856 143.401C240.856 143.401 228.884 181.398 244.875 217.482C246.531 221.218 208.909 232.02 188.869 230.382C184.244 230.003 180.557 228.962 178.506 227.018L160.841 159.53Z" fill="url(#paint24_linear_6_897)"/>
<g id="Clipped_9">
<mask id="mask8_6_897" style="mask-type:alpha" maskUnits="userSpaceOnUse" x="159" y="128" width="86" height="103">
<path id="Path_24" fill-rule="evenodd" clip-rule="evenodd" d="M160.841 159.53C160.19 144.247 156.196 144.23 163.03 138.295C167.569 134.352 189.593 126.913 208.448 128.689C227.303 130.465 240.856 143.401 240.856 143.401C240.856 143.401 228.884 181.398 244.875 217.482C246.531 221.218 208.909 232.02 188.869 230.382C184.244 230.003 180.557 228.962 178.506 227.018L160.841 159.53Z" fill="white"/>
</mask>
<g mask="url(#mask8_6_897)">
<g id="Group_4">
<path id="Path_25" d="M216.054 130.846C216.054 135.489 213.101 140.048 206.859 140.048C200.618 140.048 193.452 135.489 193.452 130.846C193.452 126.203 198.512 122.439 204.753 122.439C210.994 122.439 216.054 126.203 216.054 130.846Z" fill="url(#paint25_linear_6_897)"/>
<path id="Path_26" d="M181.938 249.92C199.209 213.636 190.508 217.759 178.388 204.428C166.268 191.096 183.453 171.829 174.245 147.281C166.103 125.573 136.125 161.888 136.125 161.888L145.882 200.736L151.517 227.261L160.123 236.006L181.332 247.01" fill="url(#paint26_linear_6_897)"/>
</g>
</g>
</g>
<path id="Path_27" d="M217.097 114.526L195.851 109.595L194.458 126.769L194.105 131.132C194.105 131.132 196.229 137.572 206.499 137.572C213.395 137.572 214.216 132.84 214.216 132.84C213.885 131.005 213.695 129.147 213.649 127.283C213.559 123.077 214.297 118.359 217.097 114.526Z" fill="url(#paint27_linear_6_897)"/>
<g id="Clipped_10">
<mask id="mask9_6_897" style="mask-type:alpha" maskUnits="userSpaceOnUse" x="194" y="109" width="24" height="29">
<path id="Path_28" fill-rule="evenodd" clip-rule="evenodd" d="M217.097 114.526L195.851 109.595L194.458 126.769L194.105 131.132C194.105 131.132 196.229 137.572 206.499 137.572C213.395 137.572 214.216 132.84 214.216 132.84C213.885 131.005 213.695 129.147 213.649 127.283C213.559 123.077 214.297 118.359 217.097 114.526Z" fill="white"/>
</mask>
<g mask="url(#mask9_6_897)">
<ellipse id="Oval" opacity="0.34" cx="212.34" cy="116.713" rx="13.8733" ry="10.7493" fill="url(#paint28_linear_6_897)"/>
</g>
</g>
<path id="Path_29" d="M199.645 180.147L201.164 172.179L241.721 188.685L237.352 200.736L199.645 180.147V180.147Z" fill="url(#paint29_linear_6_897)"/>
<path id="Path_30" d="M240.119 192.447L239.754 187.884C239.754 187.884 262.392 173.177 263.464 167.43L265.715 173.49L240.119 192.447Z" fill="url(#paint30_linear_6_897)"/>
<path id="Path_31" d="M230.551 230.186L238.464 236.007L263.237 214.941L267.678 169.917L240.119 192.447L230.551 230.186V230.186Z" fill="url(#paint31_linear_6_897)"/>
<path id="Path_32" d="M262.435 213.403C259.804 209.156 248.912 220.549 253.192 222.508C260.245 225.736 265.85 218.917 262.435 213.403Z" fill="url(#paint32_linear_6_897)"/>
<path id="Path_33" d="M194.46 175.466L191.205 227.619L238.464 236.007L240.119 192.448L194.46 175.466V175.466Z" fill="url(#paint33_linear_6_897)"/>
<path id="Path_34" d="M182.203 207.544C187.98 213.952 189.255 211.986 195.41 213.434C201.564 214.882 206.133 231.529 191.162 225.258C177.769 219.648 175.613 213.674 175.613 213.674L182.203 207.544Z" fill="url(#paint34_linear_6_897)"/>
<g id="Clipped_11">
<mask id="mask10_6_897" style="mask-type:alpha" maskUnits="userSpaceOnUse" x="175" y="207" width="27" height="20">
<path id="Path_35" fill-rule="evenodd" clip-rule="evenodd" d="M182.203 207.544C187.98 213.952 189.255 211.986 195.41 213.434C201.564 214.882 206.133 231.529 191.162 225.258C177.769 219.648 175.613 213.674 175.613 213.674L182.203 207.544Z" fill="white"/>
</mask>
<g mask="url(#mask10_6_897)">
<path id="Path_36" opacity="0.34" d="M186.698 210.017C191.37 216.6 184.858 219.779 186.981 223.321C189.105 226.864 178.727 220.776 178.727 220.776L180.823 214.76L186.486 212.707" fill="url(#paint35_linear_6_897)"/>
</g>
</g>
<path id="Path_37" d="M187.727 211.515C187.727 211.515 188.595 219.482 181.844 221.83C181.844 221.83 151.92 212.199 151.639 205.736C151.359 199.273 150.34 137.274 165.9 137.573C175.016 137.749 178.839 157.13 174.82 171.373C170.801 185.616 168.228 197.199 168.228 197.199C168.228 197.199 184.99 208.943 187.727 211.515Z" fill="#1ACAE6"/>
<path id="Path_38" d="M202.145 122.008C214.383 129.526 226.587 121.204 223.721 89.8387C222.075 71.8325 175.396 103.826 202.145 122.008Z" fill="url(#paint36_linear_6_897)"/>
<path id="Path_39" d="M194.579 112.421C200.992 113.12 198.56 96.3083 205.16 97.7069C211.76 99.1055 229.31 95.0483 228 80.7486C226.69 66.449 197.988 80.153 193.618 87.7055C189.247 95.258 194.579 112.421 194.579 112.421Z" fill="url(#paint37_linear_6_897)"/>
<ellipse id="Oval_2" cx="196.739" cy="108.836" rx="4.47864" ry="6.42385" transform="rotate(-34.8838 196.739 108.836)" fill="url(#paint38_linear_6_897)"/>
<path id="Path_40" d="M330.329 341.285C330.354 341.256 330.359 341.215 330.342 341.182C330.325 341.148 330.29 341.127 330.252 341.13C268.485 346.096 311.96 408.565 255.783 390.08C199.533 371.57 216.12 441.281 274.893 420.368C319.821 404.381 279.437 346.634 330.353 348.614L330.329 341.285Z" fill="url(#paint39_linear_6_897)"/>
<g id="Clipped_12">
<mask id="mask11_6_897" style="mask-type:alpha" maskUnits="userSpaceOnUse" x="221" y="341" width="110" height="84">
<path id="Path_41" fill-rule="evenodd" clip-rule="evenodd" d="M330.329 341.285C330.354 341.256 330.359 341.215 330.342 341.182C330.325 341.148 330.29 341.127 330.252 341.13C268.485 346.096 311.96 408.565 255.783 390.08C199.533 371.57 216.12 441.281 274.893 420.368C319.821 404.381 279.437 346.634 330.353 348.614L330.329 341.285Z" fill="white"/>
</mask>
<g mask="url(#mask11_6_897)">
<g id="Group_5">
<ellipse id="Oval_3" cx="256.93" cy="388.639" rx="11.7787" ry="17.1873" fill="url(#paint40_linear_6_897)"/>
<ellipse id="Oval_4" cx="234.791" cy="424.324" rx="11.7787" ry="17.1873" transform="rotate(-19.7601 234.791 424.324)" fill="url(#paint41_linear_6_897)"/>
<ellipse id="Oval_5" cx="296.329" cy="407.991" rx="11.7787" ry="17.1873" transform="rotate(-19.7601 296.329 407.991)" fill="url(#paint42_linear_6_897)"/>
</g>
</g>
</g>
<path id="Path_42" d="M414.759 433.86H344.828C342.126 433.862 339.521 432.852 337.526 431.029C225.68 328.53 379.364 303.811 430.28 408.859C430.28 408.859 431.632 401.468 438.122 400.115C438.122 400.115 439.76 400.88 440.481 408.813C440.481 408.813 446.511 406.745 450.437 412.346C450.437 412.346 453.627 409.49 458.027 409.521C458.027 409.521 460.224 413.631 457.473 420.663C463.122 430.699 450.816 433.86 450.816 433.86H412.595" fill="url(#paint43_linear_6_897)"/>
<g id="Clipped_13">
<mask id="mask12_6_897" style="mask-type:alpha" maskUnits="userSpaceOnUse" x="297" y="341" width="162" height="93">
<path id="Path_43" fill-rule="evenodd" clip-rule="evenodd" d="M414.759 433.86H344.828C342.126 433.862 339.521 432.852 337.526 431.029C225.68 328.53 379.364 303.811 430.28 408.859C430.28 408.859 431.632 401.468 438.122 400.115C438.122 400.115 439.76 400.88 440.481 408.813C440.481 408.813 446.511 406.745 450.437 412.346C450.437 412.346 453.627 409.49 458.027 409.521C458.027 409.521 460.224 413.631 457.473 420.663C463.122 430.699 450.816 433.86 450.816 433.86H412.595" fill="white"/>
</mask>
<g mask="url(#mask12_6_897)">
<g id="Group_6">
<path id="Path_44" d="M433.52 395.58L430.28 408.859C430.28 408.859 419.067 410.153 424.691 423.746C424.691 423.746 414.21 407.118 430.485 395.58" fill="url(#paint44_linear_6_897)"/>
<path id="Path_45" d="M389.38 438.759C389.38 438.759 392.555 410.788 369.574 424.653V424.653C369.574 424.653 413.418 359.433 357.409 357.3V357.3L341.905 385.514L331.783 425.608L325.318 436.413" fill="url(#paint45_linear_6_897)"/>
<path id="Path_46" d="M426.109 435.358C426.109 435.358 428.554 417.767 405.372 421.544C382.19 425.321 398.154 440.15 398.154 440.15H417.886" fill="url(#paint46_linear_6_897)"/>
<ellipse id="Oval_6" cx="407.066" cy="364.083" rx="17.918" ry="26.1456" transform="rotate(-19.7601 407.066 364.083)" fill="url(#paint47_linear_6_897)"/>
<circle id="Oval_7" cx="446.668" cy="408.276" r="4.82265" fill="url(#paint48_linear_6_897)"/>
<circle id="Oval_8" cx="458.957" cy="429.345" r="4.82265" fill="url(#paint49_linear_6_897)"/>
<circle id="Oval_9" cx="427.74" cy="421.055" r="3.41013" fill="url(#paint50_linear_6_897)"/>
</g>
</g>
</g>
<path id="Path_47" d="M424.614 433.86C424.614 433.86 426.109 418.438 404.427 423.023L421.231 400.942L399.855 390.832C364.519 417.034 384.47 433.86 384.47 433.86L424.614 433.86Z" fill="url(#paint51_linear_6_897)"/>
<path id="Path_48" d="M313.317 372.803C403.701 325.208 387.476 399.967 366.562 426.168C366.562 426.168 386.56 414.39 382.33 433.86H342.524L313.317 372.803Z" fill="url(#paint52_linear_6_897)"/>
<ellipse id="Oval_10" cx="438.749" cy="420.189" rx="4.88258" ry="2.42782" transform="rotate(-68.4093 438.749 420.189)" fill="white"/>
<g id="Clipped_14">
<mask id="mask13_6_897" style="mask-type:alpha" maskUnits="userSpaceOnUse" x="435" y="415" width="7" height="10">
<ellipse id="Oval_11" cx="438.749" cy="420.189" rx="4.88258" ry="2.42782" transform="rotate(-68.4093 438.749 420.189)" fill="white"/>
</mask>
<g mask="url(#mask13_6_897)">
<ellipse id="Oval_12" cx="441.18" cy="419.606" rx="1.27332" ry="1.72108" transform="rotate(-76.8485 441.18 419.606)" fill="url(#paint53_linear_6_897)"/>
</g>
</g>
<ellipse id="Oval_13" cx="447.911" cy="423.023" rx="4.88258" ry="2.42782" transform="rotate(-68.4093 447.911 423.023)" fill="white"/>
<g id="Clipped_15">
<mask id="mask14_6_897" style="mask-type:alpha" maskUnits="userSpaceOnUse" x="445" y="418" width="6" height="10">
<ellipse id="Oval_14" cx="447.911" cy="423.023" rx="4.88258" ry="2.42782" transform="rotate(-68.4093 447.911 423.023)" fill="white"/>
</mask>
<g mask="url(#mask14_6_897)">
<ellipse id="Oval_15" cx="450.341" cy="422.44" rx="1.27332" ry="1.72108" transform="rotate(-76.8485 450.341 422.44)" fill="url(#paint54_linear_6_897)"/>
</g>
</g>
<path id="Path_49" d="M447.621 428.353C447.798 428.275 447.979 428.206 448.16 428.131C448.34 428.055 448.525 427.99 448.714 427.937L449.28 427.783L449.565 427.71L449.853 427.656C450.621 427.51 451.399 427.418 452.181 427.382C453.738 427.311 455.299 427.392 456.841 427.624C458.382 427.845 459.9 428.205 461.376 428.699L461.928 428.889C462.11 428.96 462.292 429.031 462.472 429.106L463.012 429.328L463.541 429.582C463.715 429.671 463.893 429.748 464.063 429.847C464.233 429.945 464.402 430.042 464.569 430.142L464.819 430.293L465.059 430.464C465.216 430.581 465.374 430.693 465.526 430.813C464.079 430.343 462.604 429.962 461.111 429.67C459.633 429.366 458.147 429.111 456.657 428.891C455.167 428.67 453.671 428.497 452.17 428.385C450.657 428.254 449.136 428.244 447.621 428.353Z" fill="url(#paint55_linear_6_897)"/>
<path id="Path_50" d="M447.479 430.504C448.17 430.187 448.912 429.993 449.669 429.933C450.428 429.866 451.192 429.876 451.949 429.962C453.448 430.141 454.921 430.494 456.339 431.014C457.745 431.521 459.109 432.139 460.416 432.863C461.728 433.575 462.969 434.411 464.122 435.358C462.709 434.863 461.35 434.307 459.987 433.774C458.626 433.236 457.271 432.709 455.909 432.22C454.556 431.724 453.178 431.301 451.78 430.951C450.383 430.62 448.97 430.385 447.479 430.504Z" fill="url(#paint56_linear_6_897)"/>
<path id="Path_51" d="M446.668 432.675C447.032 432.66 447.397 432.655 447.763 432.659L448.312 432.669L448.858 432.717C449.221 432.754 449.587 432.788 449.95 432.84C450.311 432.903 450.671 432.973 451.032 433.044C452.473 433.359 453.874 433.838 455.206 434.471C456.537 435.114 457.785 435.915 458.922 436.859C459.066 436.973 459.2 437.102 459.338 437.223C459.474 437.348 459.614 437.466 459.744 437.596C460.004 437.858 460.268 438.112 460.509 438.391C461.004 438.932 461.445 439.522 461.824 440.15C461.242 439.705 460.674 439.268 460.088 438.859C459.804 438.646 459.502 438.455 459.214 438.25L458.327 437.671C457.14 436.921 455.912 436.238 454.65 435.625C453.386 435.018 452.086 434.493 450.757 434.009C450.423 433.895 450.089 433.778 449.754 433.655L448.736 433.331L448.225 433.16L447.707 433.01C447.361 432.908 447.015 432.797 446.668 432.675Z" fill="url(#paint57_linear_6_897)"/>
<path id="Path_52" d="M435.661 424.653C435.095 424.161 434.499 423.704 433.877 423.286C433.264 422.869 432.635 422.48 431.997 422.107C430.721 421.362 429.411 420.677 428.083 420.026C426.753 419.379 425.406 418.764 424.037 418.192C422.662 417.603 421.254 417.096 419.82 416.674C420.586 416.618 421.356 416.648 422.115 416.765C422.874 416.875 423.625 417.034 424.364 417.24C425.838 417.653 427.271 418.201 428.645 418.876C430.026 419.545 431.336 420.349 432.559 421.276C433.171 421.743 433.747 422.256 434.283 422.809C434.824 423.359 435.287 423.979 435.661 424.653V424.653Z" fill="url(#paint58_linear_6_897)"/>
<path id="Path_53" d="M434.331 426.437C433.777 425.964 433.17 425.559 432.521 425.227C431.884 424.9 431.228 424.612 430.556 424.366C429.202 423.876 427.825 423.456 426.428 423.107C425.028 422.745 423.611 422.42 422.186 422.094C420.761 421.764 419.328 421.452 417.886 421.055C419.371 420.932 420.864 420.947 422.346 421.1C423.832 421.24 425.304 421.497 426.749 421.868C428.212 422.233 429.628 422.764 430.969 423.452C431.645 423.803 432.282 424.224 432.871 424.708C433.464 425.185 433.96 425.772 434.331 426.437V426.437Z" fill="url(#paint59_linear_6_897)"/>
<path id="Path_54" d="M433.52 428.608C432.09 428.189 430.725 427.722 429.327 427.375C427.933 427.024 426.537 426.731 425.127 426.519C423.713 426.309 422.288 426.176 420.86 426.12C419.424 426.065 417.98 426.078 416.496 426.128C417.183 425.84 417.895 425.617 418.623 425.46C419.352 425.297 420.091 425.182 420.834 425.113C422.328 424.982 423.832 425.029 425.315 425.253C426.796 425.479 428.247 425.871 429.641 426.422C429.985 426.569 430.327 426.717 430.666 426.871C431.005 427.025 431.329 427.214 431.657 427.389L432.143 427.661C432.301 427.758 432.456 427.862 432.61 427.966C432.92 428.172 433.223 428.386 433.52 428.608Z" fill="url(#paint60_linear_6_897)"/>
<path id="Path_55" d="M440.123 430.647L439.573 429.632C439.164 428.876 439.888 428.021 440.796 428.189L441.497 428.319C441.7 428.356 441.898 428.417 442.087 428.501L442.729 428.787C443.106 428.933 443.354 429.294 443.355 429.697C443.355 430.101 443.108 430.463 442.732 430.609L441.616 431.109C441.073 431.36 440.429 431.16 440.123 430.647Z" fill="url(#paint61_linear_6_897)"/>
<path id="Path_56" d="M408.891 135.572C408.683 129.839 407.268 124.215 404.737 119.067C403.775 117.113 402.657 115.239 401.394 113.465C391.962 100.204 375.05 93.3752 358.318 97.5864C341.585 101.798 329.921 115.818 327.891 131.965C327.618 134.126 327.52 136.306 327.598 138.482C327.805 144.215 329.221 149.839 331.752 154.987C341.679 154.668 355.011 152.935 371.221 148.856C387.432 144.776 399.996 139.99 408.891 135.572Z" fill="url(#paint62_linear_6_897)"/>
<g id="Clipped_16">
<mask id="mask15_6_897" style="mask-type:alpha" maskUnits="userSpaceOnUse" x="327" y="96" width="82" height="59">
<path id="Path_57" fill-rule="evenodd" clip-rule="evenodd" d="M408.891 135.572C408.683 129.839 407.268 124.215 404.737 119.067C403.775 117.113 402.657 115.239 401.394 113.465C391.962 100.204 375.05 93.3752 358.318 97.5864C341.585 101.798 329.921 115.818 327.891 131.965C327.618 134.126 327.52 136.306 327.598 138.482C327.805 144.215 329.221 149.839 331.752 154.987C341.679 154.668 355.011 152.935 371.221 148.856C387.432 144.776 399.996 139.99 408.891 135.572Z" fill="white"/>
</mask>
<g mask="url(#mask15_6_897)">
<path id="Path_58" d="M342.064 90.8815C428.626 96.0068 410.854 143.484 349.131 153.331C287.407 163.179 430.705 146.833 430.705 146.833L428.365 99.7095L362.724 86.9613L345.202 95.8125" fill="url(#paint63_linear_6_897)"/>
</g>
</g>
<path id="Path_59" d="M335.095 160.589C344.527 173.851 361.439 180.679 378.171 176.468C394.904 172.257 406.568 158.236 408.598 142.089C398.58 146.729 386.066 151.03 372.621 154.414C359.175 157.798 346.115 159.934 335.095 160.589Z" fill="url(#paint64_linear_6_897)"/>
<path id="Path_60" d="M430.497 121.359C429.123 115.898 421.447 113.168 407.683 113.247C405.678 113.259 403.572 113.336 401.394 113.465C402.657 115.239 403.775 117.113 404.737 119.067C417.274 118.665 424.375 120.517 424.939 122.758C425.503 124.999 420.125 129.992 408.891 135.572C399.996 139.99 387.432 144.776 371.222 148.856C355.011 152.935 341.679 154.668 331.752 154.987C319.215 155.39 312.114 153.537 311.55 151.296C310.986 149.056 316.364 144.062 327.598 138.482C327.52 136.305 327.618 134.126 327.891 131.965C325.911 132.882 324.02 133.811 322.248 134.75C310.086 141.196 304.617 147.234 305.991 152.695C307.366 158.156 315.042 160.886 328.806 160.807C330.811 160.795 332.917 160.718 335.095 160.589C346.115 159.934 359.175 157.798 372.621 154.414C386.066 151.03 398.58 146.729 408.598 142.089C410.578 141.172 412.469 140.243 414.241 139.304C426.403 132.858 431.872 126.82 430.497 121.359Z" fill="url(#paint65_linear_6_897)"/>
<g id="Clipped_17">
<mask id="mask16_6_897" style="mask-type:alpha" maskUnits="userSpaceOnUse" x="305" y="113" width="126" height="48">
<path id="Path_61" fill-rule="evenodd" clip-rule="evenodd" d="M430.497 121.359C429.123 115.898 421.447 113.168 407.683 113.247C405.678 113.259 403.572 113.336 401.394 113.465C402.657 115.239 403.775 117.113 404.737 119.067C417.274 118.665 424.375 120.517 424.939 122.758C425.503 124.999 420.125 129.992 408.891 135.572C399.996 139.99 387.432 144.776 371.222 148.856C355.011 152.935 341.679 154.668 331.752 154.987C319.215 155.39 312.114 153.537 311.55 151.296C310.986 149.056 316.364 144.062 327.598 138.482C327.52 136.305 327.618 134.126 327.891 131.965C325.911 132.882 324.02 133.811 322.248 134.75C310.086 141.196 304.617 147.234 305.991 152.695C307.366 158.156 315.042 160.886 328.806 160.807C330.811 160.795 332.917 160.718 335.095 160.589C346.115 159.934 359.175 157.798 372.621 154.414C386.066 151.03 398.58 146.729 408.598 142.089C410.578 141.172 412.469 140.243 414.241 139.304C426.403 132.858 431.872 126.82 430.497 121.359Z" fill="white"/>
</mask>
<g mask="url(#mask16_6_897)">
<g id="Group_7">
<path id="Path_62" d="M296.56 137.027C334.742 131.012 331.08 148.162 331.08 148.162L340.495 126.864L325.327 123.721" fill="url(#paint66_linear_6_897)"/>
<path id="Path_63" d="M390.968 107.485C410.058 110.091 412.151 123.721 412.151 123.721L395.937 126.864L390.706 121.859" fill="url(#paint67_linear_6_897)"/>
</g>
</g>
</g>
<path id="Shape" fill-rule="evenodd" clip-rule="evenodd" d="M132.741 291.91C100.025 291.91 73.4087 318.827 73.4087 351.913C73.4087 385 100.025 411.917 132.741 411.917C165.457 411.917 192.073 385 192.073 351.913C192.073 318.827 165.457 291.91 132.741 291.91ZM132.741 392.333C110.703 392.333 92.7731 374.201 92.7731 351.913C92.7731 329.626 110.703 311.493 132.741 311.493C154.779 311.493 172.709 329.626 172.709 351.913C172.709 374.201 154.779 392.333 132.741 392.333Z" fill="url(#paint68_linear_6_897)"/>
<path id="Path_64" d="M63.6099 262.043C98.4789 262.043 126.746 266.055 126.746 271.003C126.746 272.636 123.654 274.165 118.278 275.483C107.361 272.806 86.975 271.003 63.6099 271.003C40.2448 271.003 19.8595 272.806 8.94144 275.483C3.56611 274.165 0.474045 272.636 0.474045 271.003C0.47424 266.055 28.7412 262.043 63.6099 262.043Z" fill="url(#paint69_linear_6_897)"/>
<ellipse id="Oval_16" cx="63.6099" cy="275.483" rx="54.6686" ry="4.48002" fill="url(#paint70_linear_6_897)"/>
<path id="Path_65" d="M8.94144 275.483C19.8595 278.161 40.2449 279.963 63.6099 279.963C86.9748 279.963 107.361 278.161 118.278 275.483C123.654 274.165 126.746 272.636 126.746 271.003V432.824C126.746 437.772 98.4789 441.784 63.6099 441.784C28.7408 441.784 0.474045 437.772 0.474045 432.824V271.003C0.474045 272.636 3.56611 274.165 8.94144 275.483Z" fill="url(#paint71_linear_6_897)"/>
<g id="Clipped_18">
<mask id="mask17_6_897" style="mask-type:alpha" maskUnits="userSpaceOnUse" x="0" y="271" width="127" height="171">
<path id="Path_66" fill-rule="evenodd" clip-rule="evenodd" d="M8.94144 275.483C19.8595 278.161 40.2449 279.963 63.6099 279.963C86.9748 279.963 107.361 278.161 118.278 275.483C123.654 274.165 126.746 272.636 126.746 271.003V432.824C126.746 437.772 98.4789 441.784 63.6099 441.784C28.7408 441.784 0.474045 437.772 0.474045 432.824V271.003C0.474045 272.636 3.56611 274.165 8.94144 275.483Z" fill="white"/>
</mask>
<g mask="url(#mask17_6_897)">
<path id="Path_67" d="M-44.6175 433.521C136.953 424.791 132.022 326.632 132.741 291.91C133.461 257.188 156.157 430.902 156.157 430.902L147.428 456.217C147.428 456.217 88.4286 465.819 73.4086 468.438C58.3887 471.057 -75.1702 441.784 -75.1702 441.784" fill="url(#paint72_linear_6_897)"/>
</g>
</g>
<path id="Path_68" d="M70.2009 12.3123C27.5042 -10.9674 8.94144 69.6842 57.5894 135.476C90.1232 179.476 73.2097 228.346 57.5894 244.238C41.9691 260.13 49.5758 277.296 75.6556 231.357C100.211 188.103 102.933 144.643 76.0937 113.033C42.263 73.1886 102.778 30.0745 70.2009 12.3123Z" fill="url(#paint73_linear_6_897)"/>
<ellipse id="Oval_17" cx="97.7206" cy="102.485" rx="10.4295" ry="10.5476" fill="url(#paint74_linear_6_897)"/>
</g>
<defs>
<linearGradient id="paint0_linear_6_897" x1="82.0936" y1="431.15" x2="369.194" y2="431.15" gradientUnits="userSpaceOnUse">
<stop offset="0.1011" stop-color="#FFCC02"/>
<stop offset="1" stop-color="#FFE484"/>
</linearGradient>
<linearGradient id="paint1_linear_6_897" x1="118.061" y1="438.215" x2="154.672" y2="438.215" gradientUnits="userSpaceOnUse">
<stop offset="0.1011" stop-color="#FF7638"/>
<stop offset="0.8855" stop-color="#FF3929"/>
</linearGradient>
<linearGradient id="paint2_linear_6_897" x1="170.633" y1="427.882" x2="170.008" y2="474.94" gradientUnits="userSpaceOnUse">
<stop offset="0.1011" stop-color="#FFCC02"/>
<stop offset="1" stop-color="#FFE484"/>
</linearGradient>
<linearGradient id="paint3_linear_6_897" x1="1060.47" y1="367.091" x2="1060.37" y2="193.673" gradientUnits="userSpaceOnUse">
<stop offset="0.1011" stop-color="#FF7638"/>
<stop offset="0.8855" stop-color="#FF3929"/>
</linearGradient>
<linearGradient id="paint4_linear_6_897" x1="216.218" y1="278.364" x2="216.196" y2="285.647" gradientUnits="userSpaceOnUse">
<stop offset="0.1011" stop-color="#FF7638"/>
<stop offset="0.8855" stop-color="#FF3929"/>
</linearGradient>
<linearGradient id="paint5_linear_6_897" x1="-184.505" y1="302.911" x2="-184.319" y2="432.025" gradientUnits="userSpaceOnUse">
<stop offset="0.1011" stop-color="white"/>
<stop offset="1" stop-color="#FFE484"/>
</linearGradient>
<linearGradient id="paint6_linear_6_897" x1="235.099" y1="379.643" x2="235.11" y2="375.129" gradientUnits="userSpaceOnUse">
<stop offset="0.1011" stop-color="white"/>
<stop offset="1" stop-color="#FFE484"/>
</linearGradient>
<linearGradient id="paint7_linear_6_897" x1="401.253" y1="339.098" x2="401.242" y2="343.612" gradientUnits="userSpaceOnUse">
<stop offset="0.1011" stop-color="white"/>
<stop offset="1" stop-color="#FFE484"/>
</linearGradient>
<linearGradient id="paint8_linear_6_897" x1="163.03" y1="344.442" x2="437.285" y2="344.442" gradientUnits="userSpaceOnUse">
<stop stop-color="#8FF490"/>
<stop offset="1" stop-color="#45CEB5"/>
</linearGradient>
<linearGradient id="paint9_linear_6_897" x1="163.03" y1="378.483" x2="437.285" y2="378.483" gradientUnits="userSpaceOnUse">
<stop stop-color="#8FF490"/>
<stop offset="1" stop-color="#45CEB5"/>
</linearGradient>
<linearGradient id="paint10_linear_6_897" x1="92.7983" y1="337.805" x2="398.097" y2="337.805" gradientUnits="userSpaceOnUse">
<stop offset="0.0048" stop-color="#B68BFF"/>
<stop offset="0.9986" stop-color="#8948FF"/>
</linearGradient>
<linearGradient id="paint11_linear_6_897" x1="327.188" y1="358.92" x2="327.197" y2="356.348" gradientUnits="userSpaceOnUse">
<stop offset="0.0048" stop-color="#B68BFF"/>
<stop offset="0.9986" stop-color="#8948FF"/>
</linearGradient>
<linearGradient id="paint12_linear_6_897" x1="-827.094" y1="260.272" x2="-827.072" y2="376.848" gradientUnits="userSpaceOnUse">
<stop stop-color="#00A6F0"/>
<stop offset="1" stop-color="#006FF1"/>
</linearGradient>
<linearGradient id="paint13_linear_6_897" x1="221.836" y1="319.199" x2="311.614" y2="295.019" gradientUnits="userSpaceOnUse">
<stop offset="0.0035" stop-color="#4AAAFD"/>
<stop offset="1" stop-color="#00DED8"/>
</linearGradient>
<linearGradient id="paint14_linear_6_897" x1="219.72" y1="129.547" x2="160.134" y2="167.87" gradientUnits="userSpaceOnUse">
<stop offset="0.0035" stop-color="#4AAAFD"/>
<stop offset="1" stop-color="#00DED8"/>
</linearGradient>
<linearGradient id="paint15_linear_6_897" x1="261.645" y1="376.388" x2="276.82" y2="376.388" gradientUnits="userSpaceOnUse">
<stop offset="0.1023" stop-color="#FFAFBC"/>
<stop offset="0.8855" stop-color="#FFDDDC"/>
</linearGradient>
<linearGradient id="paint16_linear_6_897" x1="258.661" y1="363.777" x2="276.82" y2="363.777" gradientUnits="userSpaceOnUse">
<stop offset="0.1011" stop-color="#FF7638"/>
<stop offset="0.8855" stop-color="#FF3929"/>
</linearGradient>
<linearGradient id="paint17_linear_6_897" x1="259.204" y1="401.165" x2="278.131" y2="401.165" gradientUnits="userSpaceOnUse">
<stop offset="0.1023" stop-color="#915758"/>
<stop offset="0.8855" stop-color="#2C090B"/>
</linearGradient>
<linearGradient id="paint18_linear_6_897" x1="368.31" y1="113.076" x2="168.838" y2="117.023" gradientUnits="userSpaceOnUse">
<stop offset="0.1011" stop-color="#FECE63"/>
<stop offset="1" stop-color="#F55850"/>
</linearGradient>
<linearGradient id="paint19_linear_6_897" x1="282.501" y1="377.465" x2="297.56" y2="377.465" gradientUnits="userSpaceOnUse">
<stop offset="0.1023" stop-color="#FFAFBC"/>
<stop offset="0.8855" stop-color="#FFDDDC"/>
</linearGradient>
<linearGradient id="paint20_linear_6_897" x1="282.117" y1="365.109" x2="295.316" y2="365.109" gradientUnits="userSpaceOnUse">
<stop offset="0.1011" stop-color="#FF7638"/>
<stop offset="0.8855" stop-color="#FF3929"/>
</linearGradient>
<linearGradient id="paint21_linear_6_897" x1="287.35" y1="396.525" x2="299.446" y2="396.525" gradientUnits="userSpaceOnUse">
<stop offset="0.1023" stop-color="#915758"/>
<stop offset="0.8855" stop-color="#2C090B"/>
</linearGradient>
<linearGradient id="paint22_linear_6_897" x1="332.559" y1="172.345" x2="137.757" y2="173.882" gradientUnits="userSpaceOnUse">
<stop offset="0.1011" stop-color="#FECE63"/>
<stop offset="1" stop-color="#F55850"/>
</linearGradient>
<linearGradient id="paint23_linear_6_897" x1="266.04" y1="270.643" x2="246.116" y2="221.604" gradientUnits="userSpaceOnUse">
<stop offset="0.1011" stop-color="#FECE63"/>
<stop offset="1" stop-color="#F55850"/>
</linearGradient>
<linearGradient id="paint24_linear_6_897" x1="212.972" y1="261.676" x2="297.563" y2="180.969" gradientUnits="userSpaceOnUse">
<stop offset="0.0035" stop-color="#4AAAFD"/>
<stop offset="1" stop-color="#00DED8"/>
</linearGradient>
<linearGradient id="paint25_linear_6_897" x1="793.349" y1="-622.634" x2="685.792" y2="-443.271" gradientUnits="userSpaceOnUse">
<stop offset="0.1023" stop-color="#FCADBA"/>
<stop offset="0.8855" stop-color="#FBDAD9"/>
</linearGradient>
<linearGradient id="paint26_linear_6_897" x1="163.197" y1="91.4143" x2="67.5821" y2="128.134" gradientUnits="userSpaceOnUse">
<stop offset="0.0035" stop-color="#4AAAFD"/>
<stop offset="1" stop-color="#00DED8"/>
</linearGradient>
<linearGradient id="paint27_linear_6_897" x1="236.218" y1="79.8589" x2="188.107" y2="91.9251" gradientUnits="userSpaceOnUse">
<stop offset="0.1023" stop-color="#FFAFBC"/>
<stop offset="0.8855" stop-color="#FFDDDC"/>
</linearGradient>
<linearGradient id="paint28_linear_6_897" x1="232.802" y1="132.093" x2="230.617" y2="128.882" gradientUnits="userSpaceOnUse">
<stop offset="0.1011" stop-color="#FF7638"/>
<stop offset="0.8855" stop-color="#FF3929"/>
</linearGradient>
<linearGradient id="paint29_linear_6_897" x1="201.326" y1="253.94" x2="200.627" y2="272.453" gradientUnits="userSpaceOnUse">
<stop offset="0.0374" stop-color="#E7F6FB"/>
<stop offset="0.9927" stop-color="#9ED8FD"/>
</linearGradient>
<linearGradient id="paint30_linear_6_897" x1="234.9" y1="264.749" x2="233.304" y2="285.72" gradientUnits="userSpaceOnUse">
<stop offset="0.0374" stop-color="#E7F6FB"/>
<stop offset="0.9927" stop-color="#9ED8FD"/>
</linearGradient>
<linearGradient id="paint31_linear_6_897" x1="253.637" y1="119.883" x2="202.604" y2="163.443" gradientUnits="userSpaceOnUse">
<stop offset="0.0035" stop-color="#B585FF"/>
<stop offset="1" stop-color="#4E37F0"/>
</linearGradient>
<linearGradient id="paint32_linear_6_897" x1="252.207" y1="223.341" x2="263.463" y2="223.341" gradientUnits="userSpaceOnUse">
<stop offset="0.1023" stop-color="#FFAFBC"/>
<stop offset="0.8855" stop-color="#FFDDDC"/>
</linearGradient>
<linearGradient id="paint33_linear_6_897" x1="205.952" y1="230.031" x2="236.414" y2="256.221" gradientUnits="userSpaceOnUse">
<stop offset="0.0035" stop-color="#B585FF"/>
<stop offset="1" stop-color="#4E37F0"/>
</linearGradient>
<linearGradient id="paint34_linear_6_897" x1="173.044" y1="225.09" x2="198.75" y2="231.253" gradientUnits="userSpaceOnUse">
<stop offset="0.1023" stop-color="#FFAFBC"/>
<stop offset="0.8855" stop-color="#FFDDDC"/>
</linearGradient>
<linearGradient id="paint35_linear_6_897" x1="178.727" y1="224.429" x2="188.427" y2="224.429" gradientUnits="userSpaceOnUse">
<stop offset="0.1011" stop-color="#FF7638"/>
<stop offset="0.8855" stop-color="#FF3929"/>
</linearGradient>
<linearGradient id="paint36_linear_6_897" x1="216.212" y1="68.9735" x2="171.329" y2="85.4388" gradientUnits="userSpaceOnUse">
<stop offset="0.1023" stop-color="#FFAFBC"/>
<stop offset="0.8855" stop-color="#FFDDDC"/>
</linearGradient>
<linearGradient id="paint37_linear_6_897" x1="191.897" y1="112.442" x2="228.07" y2="112.442" gradientUnits="userSpaceOnUse">
<stop offset="0.1023" stop-color="#915758"/>
<stop offset="0.8855" stop-color="#2C090B"/>
</linearGradient>
<linearGradient id="paint38_linear_6_897" x1="220.817" y1="46.3045" x2="160.91" y2="64.9411" gradientUnits="userSpaceOnUse">
<stop offset="0.1023" stop-color="#FFAFBC"/>
<stop offset="0.8855" stop-color="#FFDDDC"/>
</linearGradient>
<linearGradient id="paint39_linear_6_897" x1="332.847" y1="293.055" x2="282.346" y2="358.51" gradientUnits="userSpaceOnUse">
<stop offset="0.0048" stop-color="#B68BFF"/>
<stop offset="0.9986" stop-color="#8948FF"/>
</linearGradient>
<linearGradient id="paint40_linear_6_897" x1="208.631" y1="332.759" x2="215.437" y2="469.563" gradientUnits="userSpaceOnUse">
<stop offset="0.0048" stop-color="#B68BFF"/>
<stop offset="0.9986" stop-color="#8948FF"/>
</linearGradient>
<linearGradient id="paint41_linear_6_897" x1="219.758" y1="304.13" x2="143.926" y2="411.057" gradientUnits="userSpaceOnUse">
<stop offset="0.0048" stop-color="#B68BFF"/>
<stop offset="0.9986" stop-color="#8948FF"/>
</linearGradient>
<linearGradient id="paint42_linear_6_897" x1="276.59" y1="301.925" x2="200.758" y2="408.852" gradientUnits="userSpaceOnUse">
<stop offset="0.0048" stop-color="#B68BFF"/>
<stop offset="0.9986" stop-color="#8948FF"/>
</linearGradient>
<linearGradient id="paint43_linear_6_897" x1="464.058" y1="346.888" x2="358.687" y2="379.29" gradientUnits="userSpaceOnUse">
<stop offset="0.0048" stop-color="#B68BFF"/>
<stop offset="0.9986" stop-color="#8948FF"/>
</linearGradient>
<linearGradient id="paint44_linear_6_897" x1="438.467" y1="367.141" x2="414.842" y2="372.423" gradientUnits="userSpaceOnUse">
<stop offset="0.0048" stop-color="#B68BFF"/>
<stop offset="0.9986" stop-color="#8948FF"/>
</linearGradient>
<linearGradient id="paint45_linear_6_897" x1="430.062" y1="316.914" x2="348.624" y2="335.797" gradientUnits="userSpaceOnUse">
<stop offset="0.0048" stop-color="#AF7CFF"/>
<stop offset="0.9986" stop-color="#8239FF"/>
</linearGradient>
<linearGradient id="paint46_linear_6_897" x1="385.698" y1="409.769" x2="387.971" y2="426.415" gradientUnits="userSpaceOnUse">
<stop offset="0.0048" stop-color="#B68BFF"/>
<stop offset="0.9986" stop-color="#8948FF"/>
</linearGradient>
<linearGradient id="paint47_linear_6_897" x1="387.684" y1="425.151" x2="391.283" y2="420.446" gradientUnits="userSpaceOnUse">
<stop offset="0.0048" stop-color="#B68BFF"/>
<stop offset="0.9986" stop-color="#8948FF"/>
</linearGradient>
<linearGradient id="paint48_linear_6_897" x1="448.053" y1="398.168" x2="441.144" y2="406.471" gradientUnits="userSpaceOnUse">
<stop offset="0.0048" stop-color="#B68BFF"/>
<stop offset="0.9986" stop-color="#8948FF"/>
</linearGradient>
<linearGradient id="paint49_linear_6_897" x1="451.134" y1="417.034" x2="453.388" y2="424.066" gradientUnits="userSpaceOnUse">
<stop offset="0.0048" stop-color="#B68BFF"/>
<stop offset="0.9986" stop-color="#8948FF"/>
</linearGradient>
<linearGradient id="paint50_linear_6_897" x1="422.209" y1="412.35" x2="423.802" y2="417.322" gradientUnits="userSpaceOnUse">
<stop offset="0.0048" stop-color="#B68BFF"/>
<stop offset="0.9986" stop-color="#8948FF"/>
</linearGradient>
<linearGradient id="paint51_linear_6_897" x1="470.617" y1="353.237" x2="358.948" y2="366.082" gradientUnits="userSpaceOnUse">
<stop offset="0.0048" stop-color="#B68BFF"/>
<stop offset="0.9986" stop-color="#8948FF"/>
</linearGradient>
<linearGradient id="paint52_linear_6_897" x1="397.228" y1="312" x2="309.213" y2="356.762" gradientUnits="userSpaceOnUse">
<stop offset="0.0048" stop-color="#B68BFF"/>
<stop offset="0.9986" stop-color="#8948FF"/>
</linearGradient>
<linearGradient id="paint53_linear_6_897" x1="440.971" y1="417.095" x2="438.688" y2="419.187" gradientUnits="userSpaceOnUse">
<stop offset="0.0035" stop-color="#453D24"/>
<stop offset="1" stop-color="#401A0C"/>
</linearGradient>
<linearGradient id="paint54_linear_6_897" x1="450.143" y1="419.932" x2="447.861" y2="422.024" gradientUnits="userSpaceOnUse">
<stop offset="0.0035" stop-color="#453D24"/>
<stop offset="1" stop-color="#401A0C"/>
</linearGradient>
<linearGradient id="paint55_linear_6_897" x1="447.448" y1="430.86" x2="465.843" y2="430.86" gradientUnits="userSpaceOnUse">
<stop offset="0.0035" stop-color="#AE7FFF"/>
<stop offset="1" stop-color="white"/>
</linearGradient>
<linearGradient id="paint56_linear_6_897" x1="447.306" y1="435.438" x2="464.44" y2="435.438" gradientUnits="userSpaceOnUse">
<stop offset="0.0035" stop-color="#AE7FFF"/>
<stop offset="1" stop-color="white"/>
</linearGradient>
<linearGradient id="paint57_linear_6_897" x1="446.591" y1="440.288" x2="462.304" y2="440.288" gradientUnits="userSpaceOnUse">
<stop offset="0.0035" stop-color="#AE7FFF"/>
<stop offset="1" stop-color="white"/>
</linearGradient>
<linearGradient id="paint58_linear_6_897" x1="419.764" y1="424.793" x2="436.166" y2="424.793" gradientUnits="userSpaceOnUse">
<stop offset="0.0035" stop-color="#AE7FFF"/>
<stop offset="1" stop-color="white"/>
</linearGradient>
<linearGradient id="paint59_linear_6_897" x1="417.831" y1="426.529" x2="434.837" y2="426.529" gradientUnits="userSpaceOnUse">
<stop offset="0.0035" stop-color="#AE7FFF"/>
<stop offset="1" stop-color="white"/>
</linearGradient>
<linearGradient id="paint60_linear_6_897" x1="416.358" y1="428.654" x2="433.818" y2="428.654" gradientUnits="userSpaceOnUse">
<stop offset="0.0035" stop-color="#AE7FFF"/>
<stop offset="1" stop-color="white"/>
</linearGradient>
<linearGradient id="paint61_linear_6_897" x1="438.314" y1="429.344" x2="440.235" y2="432.376" gradientUnits="userSpaceOnUse">
<stop offset="0.0035" stop-color="#453D24"/>
<stop offset="1" stop-color="#401A0C"/>
</linearGradient>
<linearGradient id="paint62_linear_6_897" x1="327.571" y1="154.987" x2="408.891" y2="154.987" gradientUnits="userSpaceOnUse">
<stop offset="0.036" stop-color="#7FE6FF"/>
<stop offset="1" stop-color="#2FD5FF"/>
</linearGradient>
<linearGradient id="paint63_linear_6_897" x1="287.669" y1="127.44" x2="303.621" y2="127.44" gradientUnits="userSpaceOnUse">
<stop offset="0.036" stop-color="#7FE6FF"/>
<stop offset="1" stop-color="#2FD5FF"/>
</linearGradient>
<linearGradient id="paint64_linear_6_897" x1="335.095" y1="177.707" x2="408.598" y2="177.707" gradientUnits="userSpaceOnUse">
<stop offset="0.036" stop-color="#7FE6FF"/>
<stop offset="1" stop-color="#2FD5FF"/>
</linearGradient>
<linearGradient id="paint65_linear_6_897" x1="215.64" y1="25.3569" x2="209.062" y2="168.261" gradientUnits="userSpaceOnUse">
<stop offset="0.0083" stop-color="#00CAFE"/>
<stop offset="1" stop-color="#0088FA"/>
</linearGradient>
<linearGradient id="paint66_linear_6_897" x1="308.054" y1="173.031" x2="308.177" y2="171.635" gradientUnits="userSpaceOnUse">
<stop offset="0.0083" stop-color="#00CAFE"/>
<stop offset="1" stop-color="#0088FA"/>
</linearGradient>
<linearGradient id="paint67_linear_6_897" x1="380.028" y1="193.799" x2="380.352" y2="192.41" gradientUnits="userSpaceOnUse">
<stop offset="0.0083" stop-color="#00CAFE"/>
<stop offset="1" stop-color="#0088FA"/>
</linearGradient>
<linearGradient id="paint68_linear_6_897" x1="34.7502" y1="233.888" x2="38.2895" y2="238.214" gradientUnits="userSpaceOnUse">
<stop offset="0.1011" stop-color="#FFDF94"/>
<stop offset="1" stop-color="#FFA200"/>
</linearGradient>
<linearGradient id="paint69_linear_6_897" x1="15.6704" y1="341.883" x2="15.6928" y2="339.515" gradientUnits="userSpaceOnUse">
<stop offset="0.1011" stop-color="#FFDF94"/>
<stop offset="1" stop-color="#FFA200"/>
</linearGradient>
<linearGradient id="paint70_linear_6_897" x1="8.94145" y1="279.963" x2="118.278" y2="279.963" gradientUnits="userSpaceOnUse">
<stop offset="0.1023" stop-color="#DCDFF8"/>
<stop offset="0.8855" stop-color="#F5F7FE"/>
</linearGradient>
<linearGradient id="paint71_linear_6_897" x1="-99.1601" y1="360.911" x2="90.5881" y2="459.036" gradientUnits="userSpaceOnUse">
<stop offset="0.1011" stop-color="#FFDF94"/>
<stop offset="1" stop-color="#FFA200"/>
</linearGradient>
<linearGradient id="paint72_linear_6_897" x1="-35.8189" y1="279.376" x2="-26.7193" y2="307.159" gradientUnits="userSpaceOnUse">
<stop offset="0.1011" stop-color="#FFDF94"/>
<stop offset="1" stop-color="#FFA200"/>
</linearGradient>
<linearGradient id="paint73_linear_6_897" x1="28.6687" y1="261.012" x2="95.1662" y2="261.012" gradientUnits="userSpaceOnUse">
<stop offset="0.1023" stop-color="#DCDFF8"/>
<stop offset="0.8855" stop-color="#F5F7FE"/>
</linearGradient>
<linearGradient id="paint74_linear_6_897" x1="87.2911" y1="113.032" x2="108.15" y2="113.032" gradientUnits="userSpaceOnUse">
<stop offset="0.1023" stop-color="#DCDFF8"/>
<stop offset="0.8855" stop-color="#F5F7FE"/>
</linearGradient>
</defs>
</svg>
